<svg xmlns="http://www.w3.org/2000/svg" xmlns:xlink="http://www.w3.org/1999/xlink" width="402" zoomAndPan="magnify" viewBox="0 0 301.5 53.25" height="71" preserveAspectRatio="xMidYMid meet" version="1.0"><defs><filter x="0%" y="0%" width="100%" height="100%" id="8b21290ec6"><feColorMatrix values="0 0 0 0 1 0 0 0 0 1 0 0 0 0 1 0 0 0 1 0" color-interpolation-filters="sRGB"/></filter><g/><clipPath id="b4482b49ba"><path d="M 5.445312 0.796875 L 56.476562 0.796875 L 56.476562 51.828125 L 5.445312 51.828125 Z M 5.445312 0.796875 " clip-rule="nonzero"/></clipPath><mask id="8f60702a39"><g filter="url(#8b21290ec6)"><rect x="-30.15" width="361.8" fill="#000000" y="-5.325" height="63.899999" fill-opacity="0.99"/></g></mask><clipPath id="53d55f339b"><path d="M 0.445312 0.796875 L 51.476562 0.796875 L 51.476562 51.828125 L 0.445312 51.828125 Z M 0.445312 0.796875 " clip-rule="nonzero"/></clipPath><clipPath id="ff50babbc5"><rect x="0" width="52" y="0" height="52"/></clipPath><clipPath id="95b9b7b440"><path d="M 15 13 L 56.476562 13 L 56.476562 51.828125 L 15 51.828125 Z M 15 13 " clip-rule="nonzero"/></clipPath><mask id="c433d23c28"><g filter="url(#8b21290ec6)"><rect x="-30.15" width="361.8" fill="#000000" y="-5.325" height="63.899999" fill-opacity="0.99"/></g></mask><clipPath id="d2a6e4ecd5"><path d="M 0.101562 0.253906 L 41 0.253906 L 41 38 L 0.101562 38 Z M 0.101562 0.253906 " clip-rule="nonzero"/></clipPath><clipPath id="60319ed477"><rect x="0" width="42" y="0" height="39"/></clipPath><mask id="c991a92df1"><g filter="url(#8b21290ec6)"><rect x="-30.15" width="361.8" fill="#000000" y="-5.325" height="63.899999" fill-opacity="0.99"/></g></mask><clipPath id="73988865ee"><path d="M 0.652344 0.964844 L 25.265625 0.964844 L 25.265625 25.339844 L 0.652344 25.339844 Z M 0.652344 0.964844 " clip-rule="nonzero"/></clipPath><clipPath id="8201323749"><rect x="0" width="26" y="0" height="26"/></clipPath><mask id="6c375f29f5"><g filter="url(#8b21290ec6)"><rect x="-30.15" width="361.8" fill="#000000" y="-5.325" height="63.899999" fill-opacity="0.99"/></g></mask><clipPath id="d67d0ebfef"><path d="M 0.597656 0.671875 L 23.554688 0.671875 L 23.554688 23.628906 L 0.597656 23.628906 Z M 0.597656 0.671875 " clip-rule="nonzero"/></clipPath><clipPath id="f7810b3ffa"><rect x="0" width="24" y="0" height="24"/></clipPath><mask id="af17e9adb1"><g filter="url(#8b21290ec6)"><rect x="-30.15" width="361.8" fill="#000000" y="-5.325" height="63.899999" fill-opacity="0.99"/></g></mask><clipPath id="2ab5928a04"><rect x="0" width="6" y="0" height="6"/></clipPath><mask id="df262b9a91"><g filter="url(#8b21290ec6)"><rect x="-30.15" width="361.8" fill="#000000" y="-5.325" height="63.899999" fill-opacity="0.99"/></g></mask><clipPath id="26b4d4e7b9"><path d="M 0.222656 1 L 4.957031 1 L 4.957031 5 L 0.222656 5 Z M 0.222656 1 " clip-rule="nonzero"/></clipPath><clipPath id="0970491cde"><rect x="0" width="5" y="0" height="6"/></clipPath><mask id="b9d31b398d"><g filter="url(#8b21290ec6)"><rect x="-30.15" width="361.8" fill="#000000" y="-5.325" height="63.899999" fill-opacity="0.99"/></g></mask><clipPath id="f6df09d1d9"><rect x="0" width="6" y="0" height="6"/></clipPath><mask id="f9367a8980"><g filter="url(#8b21290ec6)"><rect x="-30.15" width="361.8" fill="#000000" y="-5.325" height="63.899999" fill-opacity="0.99"/></g></mask><clipPath id="d35adfaf20"><path d="M 1 0.0585938 L 5 0.0585938 L 5 4.789062 L 1 4.789062 Z M 1 0.0585938 " clip-rule="nonzero"/></clipPath><clipPath id="89784ad1e6"><rect x="0" width="6" y="0" height="5"/></clipPath><mask id="443f5d1ae0"><g filter="url(#8b21290ec6)"><rect x="-30.15" width="361.8" fill="#000000" y="-5.325" height="63.899999" fill-opacity="0.99"/></g></mask><clipPath id="f79e1ca2d2"><path d="M 0.101562 1 L 13.355469 1 L 13.355469 14 L 0.101562 14 Z M 0.101562 1 " clip-rule="nonzero"/></clipPath><clipPath id="32374369ac"><rect x="0" width="14" y="0" height="15"/></clipPath><mask id="2b8fd2c85e"><g filter="url(#8b21290ec6)"><rect x="-30.15" width="361.8" fill="#000000" y="-5.325" height="63.899999" fill-opacity="0.99"/></g></mask><clipPath id="fb8886e2a0"><path d="M 0.0390625 1 L 3 1 L 3 3.8125 L 0.0390625 3.8125 Z M 0.0390625 1 " clip-rule="nonzero"/></clipPath><clipPath id="b2de5eab42"><rect x="0" width="4" y="0" height="4"/></clipPath><mask id="5a82b0510d"><g filter="url(#8b21290ec6)"><rect x="-30.15" width="361.8" fill="#000000" y="-5.325" height="63.899999" fill-opacity="0.99"/></g></mask><clipPath id="03b8cb7e15"><path d="M 0.414062 0.109375 L 3 0.109375 L 3 2.949219 L 0.414062 2.949219 Z M 0.414062 0.109375 " clip-rule="nonzero"/></clipPath><clipPath id="092a22dcf2"><rect x="0" width="4" y="0" height="3"/></clipPath></defs><g clip-path="url(#b4482b49ba)"><g mask="url(#8f60702a39)"><g transform="matrix(1, 0, 0, 1, 5, -0.000000000000005662)"><g clip-path="url(#ff50babbc5)"><g clip-path="url(#53d55f339b)"><path fill="#b63327" d="M 43.863281 44.1875 C 43.273438 44.777344 42.660156 45.332031 42.015625 45.859375 C 41.375 46.386719 40.707031 46.882812 40.015625 47.34375 C 39.324219 47.804688 38.613281 48.234375 37.878906 48.625 C 37.148438 49.015625 36.398438 49.371094 35.628906 49.6875 C 34.863281 50.007812 34.078125 50.285156 33.285156 50.527344 C 32.488281 50.769531 31.683594 50.972656 30.867188 51.132812 C 30.054688 51.296875 29.230469 51.417969 28.40625 51.5 C 27.578125 51.582031 26.75 51.621094 25.917969 51.621094 C 25.085938 51.621094 24.257812 51.582031 23.429688 51.5 C 22.601562 51.417969 21.78125 51.296875 20.96875 51.132812 C 20.152344 50.972656 19.347656 50.769531 18.550781 50.527344 C 17.757812 50.285156 16.972656 50.007812 16.207031 49.6875 C 15.4375 49.371094 14.6875 49.015625 13.957031 48.625 C 13.222656 48.234375 12.511719 47.804688 11.820312 47.34375 C 11.128906 46.882812 10.460938 46.386719 9.820312 45.859375 C 9.175781 45.332031 8.5625 44.777344 7.972656 44.1875 C 7.386719 43.601562 6.828125 42.984375 6.300781 42.34375 C 5.773438 41.699219 5.28125 41.035156 4.816406 40.34375 C 4.355469 39.652344 3.929688 38.941406 3.539062 38.207031 C 3.144531 37.472656 2.789062 36.722656 2.472656 35.957031 C 2.15625 35.1875 1.875 34.40625 1.632812 33.609375 C 1.394531 32.816406 1.191406 32.011719 1.027344 31.195312 C 0.867188 30.378906 0.746094 29.558594 0.664062 28.730469 C 0.582031 27.90625 0.542969 27.074219 0.542969 26.246094 C 0.542969 25.414062 0.582031 24.585938 0.664062 23.757812 C 0.746094 22.929688 0.867188 22.109375 1.027344 21.292969 C 1.191406 20.476562 1.394531 19.671875 1.632812 18.878906 C 1.875 18.082031 2.15625 17.300781 2.472656 16.53125 C 2.789062 15.765625 3.144531 15.015625 3.539062 14.28125 C 3.929688 13.546875 4.355469 12.835938 4.816406 12.144531 C 5.28125 11.453125 5.773438 10.789062 6.300781 10.144531 C 6.828125 9.503906 7.386719 8.886719 7.972656 8.300781 C 8.5625 7.710938 9.175781 7.15625 9.820312 6.628906 C 10.460938 6.101562 11.128906 5.605469 11.820312 5.144531 C 12.511719 4.683594 13.222656 4.253906 13.957031 3.863281 C 14.6875 3.472656 15.4375 3.117188 16.207031 2.800781 C 16.972656 2.480469 17.757812 2.203125 18.550781 1.960938 C 19.347656 1.71875 20.152344 1.515625 20.96875 1.355469 C 21.78125 1.191406 22.601562 1.070312 23.429688 0.988281 C 24.257812 0.910156 25.085938 0.867188 25.917969 0.867188 C 26.75 0.867188 27.578125 0.910156 28.40625 0.988281 C 29.230469 1.070312 30.054688 1.191406 30.867188 1.355469 C 31.683594 1.515625 32.488281 1.71875 33.285156 1.960938 C 34.078125 2.203125 34.863281 2.480469 35.628906 2.800781 C 36.398438 3.117188 37.148438 3.472656 37.878906 3.863281 C 38.613281 4.253906 39.324219 4.683594 40.015625 5.144531 C 40.707031 5.605469 41.375 6.101562 42.015625 6.628906 C 42.660156 7.15625 43.273438 7.710938 43.863281 8.300781 C 44.449219 8.886719 45.007812 9.503906 45.535156 10.144531 C 46.0625 10.789062 46.554688 11.453125 47.019531 12.144531 C 47.480469 12.835938 47.90625 13.546875 48.296875 14.28125 C 48.691406 15.015625 49.046875 15.765625 49.363281 16.53125 C 49.679688 17.300781 49.960938 18.082031 50.203125 18.878906 C 50.441406 19.671875 50.644531 20.476562 50.808594 21.292969 C 50.96875 22.109375 51.089844 22.929688 51.171875 23.757812 C 51.253906 24.585938 51.292969 25.414062 51.292969 26.246094 C 51.292969 27.074219 51.253906 27.90625 51.171875 28.730469 C 51.089844 29.558594 50.96875 30.378906 50.808594 31.195312 C 50.644531 32.011719 50.441406 32.816406 50.203125 33.609375 C 49.960938 34.40625 49.679688 35.1875 49.363281 35.957031 C 49.046875 36.722656 48.691406 37.472656 48.296875 38.207031 C 47.90625 38.941406 47.480469 39.652344 47.019531 40.34375 C 46.554688 41.035156 46.0625 41.699219 45.535156 42.34375 C 45.007812 42.984375 44.449219 43.601562 43.863281 44.1875 Z M 43.863281 44.1875 " fill-opacity="1" fill-rule="nonzero"/></g></g></g></g></g><g clip-path="url(#95b9b7b440)"><g mask="url(#c433d23c28)"><g transform="matrix(1, 0, 0, 1, 15, 13)"><g clip-path="url(#60319ed477)"><g clip-path="url(#d2a6e4ecd5)"><path fill="#000000" d="M 10.449219 0.414062 C 9.914062 0.421875 9.394531 0.679688 8.890625 1.1875 C 8.871094 1.207031 8.851562 1.226562 8.832031 1.246094 C 6.476562 0.796875 4.6875 0.933594 4.113281 1.507812 C 4.09375 1.523438 4.078125 1.542969 4.0625 1.5625 C 4.058594 1.566406 4.054688 1.570312 4.050781 1.574219 C 4.039062 1.589844 4.027344 1.605469 4.019531 1.617188 C 4.015625 1.625 4.011719 1.628906 4.007812 1.632812 C 3.996094 1.652344 3.984375 1.671875 3.976562 1.691406 C 3.976562 1.695312 3.972656 1.695312 3.972656 1.699219 C 3.964844 1.714844 3.957031 1.734375 3.949219 1.753906 C 3.949219 1.757812 3.945312 1.765625 3.945312 1.769531 C 3.9375 1.789062 3.933594 1.804688 3.929688 1.820312 C 3.929688 1.828125 3.929688 1.832031 3.929688 1.835938 C 3.921875 1.855469 3.921875 1.875 3.917969 1.898438 C 3.917969 1.90625 3.917969 1.910156 3.917969 1.917969 C 3.914062 1.933594 3.914062 1.949219 3.914062 1.964844 C 3.914062 1.972656 3.914062 1.980469 3.914062 1.988281 C 3.914062 2.007812 3.917969 2.023438 3.917969 2.042969 C 3.917969 2.046875 3.921875 2.054688 3.921875 2.058594 C 3.921875 2.082031 3.925781 2.105469 3.933594 2.125 C 3.9375 2.160156 3.949219 2.195312 3.960938 2.234375 C 3.964844 2.242188 3.964844 2.25 3.96875 2.257812 C 3.980469 2.289062 3.992188 2.320312 4.003906 2.351562 C 4.007812 2.359375 4.011719 2.367188 4.015625 2.375 C 4.03125 2.414062 4.050781 2.453125 4.070312 2.492188 C 4.078125 2.5 4.082031 2.511719 4.085938 2.519531 C 4.105469 2.550781 4.125 2.585938 4.144531 2.617188 C 4.152344 2.628906 4.15625 2.640625 4.164062 2.648438 C 4.191406 2.691406 4.21875 2.730469 4.246094 2.773438 C 4.289062 2.832031 4.335938 2.890625 4.382812 2.953125 C 4.394531 2.96875 4.410156 2.984375 4.421875 3 C 4.460938 3.050781 4.503906 3.097656 4.546875 3.148438 C 4.5625 3.167969 4.578125 3.1875 4.597656 3.207031 C 4.648438 3.265625 4.707031 3.328125 4.765625 3.390625 C 4.773438 3.394531 4.777344 3.402344 4.78125 3.40625 C 4.835938 3.464844 4.894531 3.523438 4.953125 3.582031 L 12.652344 11.28125 L 6.347656 17.585938 C 6.171875 17.484375 5.992188 17.390625 5.816406 17.300781 C 5.878906 17.039062 5.839844 16.839844 5.699219 16.695312 C 5.585938 16.585938 5.4375 16.539062 5.242188 16.554688 C 5.046875 16.570312 4.851562 16.648438 4.644531 16.785156 C 2.589844 15.984375 0.84375 15.898438 0.402344 16.335938 C 0.390625 16.347656 0.378906 16.363281 0.367188 16.375 C 0.363281 16.378906 0.363281 16.382812 0.359375 16.390625 C 0.351562 16.398438 0.34375 16.410156 0.339844 16.417969 C 0.335938 16.421875 0.335938 16.429688 0.332031 16.433594 C 0.328125 16.441406 0.324219 16.453125 0.320312 16.460938 C 0.316406 16.46875 0.316406 16.472656 0.3125 16.480469 C 0.3125 16.488281 0.308594 16.5 0.308594 16.507812 C 0.304688 16.515625 0.304688 16.519531 0.304688 16.527344 C 0.304688 16.535156 0.304688 16.546875 0.300781 16.554688 C 0.300781 16.5625 0.300781 16.570312 0.300781 16.574219 C 0.300781 16.589844 0.304688 16.605469 0.304688 16.617188 C 0.304688 16.621094 0.304688 16.621094 0.304688 16.625 C 0.308594 16.640625 0.3125 16.660156 0.316406 16.675781 C 0.320312 16.683594 0.320312 16.691406 0.324219 16.699219 C 0.328125 16.707031 0.332031 16.71875 0.335938 16.730469 C 0.339844 16.738281 0.339844 16.746094 0.34375 16.753906 C 0.347656 16.765625 0.351562 16.773438 0.359375 16.78125 C 0.371094 16.8125 0.390625 16.84375 0.410156 16.875 C 0.414062 16.882812 0.417969 16.886719 0.421875 16.894531 C 0.441406 16.925781 0.464844 16.960938 0.492188 16.996094 C 0.523438 17.039062 0.5625 17.082031 0.601562 17.128906 C 0.613281 17.140625 0.628906 17.15625 0.640625 17.167969 C 0.667969 17.199219 0.699219 17.234375 0.734375 17.265625 C 0.738281 17.273438 0.742188 17.277344 0.75 17.285156 L 21.449219 37.980469 C 23.796875 37.460938 26.027344 36.625 28.136719 35.46875 C 30.25 34.3125 32.15625 32.886719 33.863281 31.1875 C 35.710938 29.332031 37.238281 27.238281 38.4375 24.90625 C 39.636719 22.578125 40.457031 20.121094 40.898438 17.535156 L 26.261719 2.902344 C 24.8125 1.453125 22.480469 1.453125 21.03125 2.902344 L 18.433594 5.5 C 17.355469 4.714844 16.246094 4.046875 15.148438 3.480469 C 15.144531 3.207031 15.066406 2.988281 14.90625 2.828125 C 14.597656 2.523438 14.152344 2.492188 13.570312 2.734375 C 12.785156 2.394531 12.015625 2.109375 11.273438 1.871094 C 11.460938 1.34375 11.414062 0.9375 11.132812 0.65625 C 10.964844 0.488281 10.738281 0.40625 10.449219 0.414062 Z M 10.449219 0.414062 " fill-opacity="0.07" fill-rule="evenodd"/></g></g></g></g></g><g mask="url(#c991a92df1)"><g transform="matrix(1, 0, 0, 1, 18, 13)"><g clip-path="url(#8201323749)"><g clip-path="url(#73988865ee)"><path fill="#ffffff" d="M 12.996094 13.164062 C 6.496094 6.664062 -0.339844 2.957031 1.109375 1.507812 C 2.5625 0.0546875 11.753906 1.40625 18.253906 7.90625 C 24.757812 14.410156 26.105469 23.597656 24.65625 25.050781 C 23.203125 26.503906 19.5 19.664062 12.996094 13.164062 Z M 12.996094 13.164062 " fill-opacity="1" fill-rule="evenodd"/></g></g></g></g><g mask="url(#6c375f29f5)"><g transform="matrix(1, 0, 0, 1, 19, 14)"><g clip-path="url(#f7810b3ffa)"><g clip-path="url(#d67d0ebfef)"><path fill="#ffffff" d="M 22.261719 1.902344 C 23.710938 3.347656 23.710938 5.679688 22.261719 7.128906 L 6.574219 22.816406 C 5.125 24.265625 4.28125 22.835938 2.832031 21.386719 C 1.382812 19.9375 -0.101562 19.035156 1.347656 17.585938 L 17.03125 1.902344 C 18.480469 0.453125 20.8125 0.453125 22.261719 1.902344 Z M 22.261719 1.902344 " fill-opacity="1" fill-rule="evenodd"/></g></g></g></g><g mask="url(#af17e9adb1)"><g transform="matrix(1, 0, 0, 1, 37, 26)"><g clip-path="url(#2ab5928a04)"><path fill="#ffffff" d="M 3.804688 3.5 C 3.621094 3.6875 3.421875 3.839844 3.207031 3.96875 C 2.996094 4.09375 2.78125 4.183594 2.574219 4.230469 C 2.363281 4.28125 2.167969 4.289062 1.992188 4.253906 C 1.816406 4.21875 1.671875 4.144531 1.558594 4.03125 C 1.445312 3.917969 1.371094 3.773438 1.335938 3.597656 C 1.304688 3.421875 1.3125 3.230469 1.359375 3.019531 C 1.410156 2.808594 1.496094 2.597656 1.625 2.382812 C 1.75 2.167969 1.90625 1.972656 2.089844 1.789062 C 2.273438 1.601562 2.472656 1.449219 2.6875 1.320312 C 2.898438 1.195312 3.109375 1.105469 3.320312 1.058594 C 3.53125 1.007812 3.726562 1 3.902344 1.035156 C 4.074219 1.070312 4.21875 1.144531 4.335938 1.257812 C 4.449219 1.371094 4.523438 1.515625 4.554688 1.691406 C 4.589844 1.867188 4.582031 2.058594 4.535156 2.269531 C 4.484375 2.480469 4.394531 2.691406 4.269531 2.90625 C 4.144531 3.117188 3.988281 3.316406 3.804688 3.5 Z M 3.804688 3.5 " fill-opacity="1" fill-rule="nonzero"/></g></g></g><g mask="url(#df262b9a91)"><g transform="matrix(1, 0, 0, 1, 26, 14)"><g clip-path="url(#0970491cde)"><g clip-path="url(#26b4d4e7b9)"><path fill="#ffffff" d="M 3.375 4.074219 C 3.191406 4.257812 2.992188 4.410156 2.777344 4.539062 C 2.566406 4.664062 2.355469 4.753906 2.144531 4.800781 C 1.933594 4.851562 1.738281 4.859375 1.566406 4.824219 C 1.390625 4.789062 1.246094 4.714844 1.132812 4.601562 C 1.015625 4.488281 0.941406 4.34375 0.910156 4.167969 C 0.875 3.992188 0.882812 3.800781 0.929688 3.589844 C 0.980469 3.378906 1.070312 3.167969 1.195312 2.953125 C 1.320312 2.742188 1.476562 2.542969 1.660156 2.359375 C 1.84375 2.175781 2.042969 2.019531 2.257812 1.890625 C 2.46875 1.765625 2.683594 1.679688 2.890625 1.628906 C 3.101562 1.578125 3.296875 1.570312 3.472656 1.605469 C 3.648438 1.640625 3.792969 1.714844 3.90625 1.828125 C 4.019531 1.941406 4.09375 2.085938 4.128906 2.261719 C 4.160156 2.4375 4.15625 2.628906 4.105469 2.839844 C 4.054688 3.050781 3.96875 3.261719 3.839844 3.476562 C 3.714844 3.691406 3.558594 3.886719 3.375 4.074219 Z M 3.375 4.074219 " fill-opacity="1" fill-rule="nonzero"/></g></g></g></g><g mask="url(#b9d31b398d)"><g transform="matrix(1, 0, 0, 1, 22, 12)"><g clip-path="url(#f6df09d1d9)"><path fill="#ffffff" d="M 3.601562 3.902344 C 3.417969 4.085938 3.222656 4.238281 3.007812 4.367188 C 2.792969 4.492188 2.582031 4.582031 2.371094 4.628906 C 2.160156 4.679688 1.96875 4.6875 1.792969 4.652344 C 1.617188 4.617188 1.472656 4.542969 1.359375 4.429688 C 1.246094 4.316406 1.171875 4.171875 1.136719 3.996094 C 1.101562 3.820312 1.109375 3.628906 1.160156 3.417969 C 1.210938 3.207031 1.296875 2.996094 1.421875 2.78125 C 1.550781 2.570312 1.707031 2.371094 1.890625 2.1875 C 2.074219 2.003906 2.273438 1.847656 2.484375 1.722656 C 2.699219 1.59375 2.910156 1.507812 3.121094 1.457031 C 3.332031 1.40625 3.523438 1.398438 3.699219 1.433594 C 3.875 1.46875 4.019531 1.542969 4.132812 1.65625 C 4.246094 1.769531 4.320312 1.914062 4.355469 2.089844 C 4.390625 2.265625 4.382812 2.457031 4.332031 2.667969 C 4.285156 2.878906 4.195312 3.089844 4.070312 3.304688 C 3.941406 3.519531 3.789062 3.71875 3.601562 3.902344 Z M 3.601562 3.902344 " fill-opacity="1" fill-rule="nonzero"/></g></g></g><g mask="url(#f9367a8980)"><g transform="matrix(1, 0, 0, 1, 39, 30)"><g clip-path="url(#89784ad1e6)"><g clip-path="url(#d35adfaf20)"><path fill="#ffffff" d="M 3.976562 3.273438 C 3.792969 3.457031 3.59375 3.613281 3.378906 3.738281 C 3.167969 3.867188 2.953125 3.953125 2.746094 4.003906 C 2.535156 4.054688 2.339844 4.058594 2.164062 4.027344 C 1.988281 3.992188 1.84375 3.917969 1.730469 3.804688 C 1.617188 3.691406 1.542969 3.546875 1.507812 3.371094 C 1.476562 3.195312 1.480469 3 1.53125 2.789062 C 1.582031 2.582031 1.667969 2.367188 1.796875 2.15625 C 1.921875 1.941406 2.078125 1.742188 2.261719 1.558594 C 2.445312 1.375 2.644531 1.21875 2.859375 1.09375 C 3.070312 0.96875 3.28125 0.878906 3.492188 0.828125 C 3.703125 0.78125 3.898438 0.773438 4.074219 0.808594 C 4.246094 0.839844 4.390625 0.914062 4.507812 1.03125 C 4.621094 1.144531 4.695312 1.289062 4.726562 1.464844 C 4.761719 1.636719 4.753906 1.832031 4.707031 2.042969 C 4.65625 2.253906 4.566406 2.464844 4.441406 2.675781 C 4.316406 2.890625 4.160156 3.089844 3.976562 3.273438 Z M 3.976562 3.273438 " fill-opacity="1" fill-rule="nonzero"/></g></g></g></g><g mask="url(#443f5d1ae0)"><g transform="matrix(1, 0, 0, 1, 15, 28)"><g clip-path="url(#32374369ac)"><g clip-path="url(#f79e1ca2d2)"><path fill="#ffffff" d="M 6.789062 7.375 C 3.359375 3.941406 -0.363281 2.101562 0.402344 1.335938 C 1.167969 0.570312 5.902344 1.398438 9.335938 4.828125 C 12.765625 8.257812 13.59375 12.992188 12.828125 13.757812 C 12.058594 14.527344 10.21875 10.804688 6.789062 7.375 Z M 6.789062 7.375 " fill-opacity="1" fill-rule="evenodd"/></g></g></g></g><g mask="url(#2b8fd2c85e)"><g transform="matrix(1, 0, 0, 1, 25, 35)"><g clip-path="url(#b2de5eab42)"><g clip-path="url(#fb8886e2a0)"><path fill="#ffffff" d="M 2.152344 2.792969 C 1.925781 3.019531 1.683594 3.164062 1.421875 3.226562 C 1.164062 3.285156 0.960938 3.246094 0.824219 3.105469 C 0.683594 2.964844 0.644531 2.765625 0.703125 2.507812 C 0.765625 2.246094 0.910156 2.003906 1.136719 1.777344 C 1.363281 1.550781 1.605469 1.40625 1.867188 1.347656 C 2.125 1.285156 2.324219 1.324219 2.464844 1.464844 C 2.605469 1.605469 2.644531 1.804688 2.582031 2.0625 C 2.523438 2.324219 2.378906 2.566406 2.152344 2.792969 Z M 2.152344 2.792969 " fill-opacity="1" fill-rule="nonzero"/></g></g></g></g><g mask="url(#5a82b0510d)"><g transform="matrix(1, 0, 0, 1, 18, 29)"><g clip-path="url(#092a22dcf2)"><g clip-path="url(#03b8cb7e15)"><path fill="#ffffff" d="M 2.382812 2.027344 C 2.15625 2.253906 1.914062 2.394531 1.65625 2.457031 C 1.394531 2.519531 1.195312 2.480469 1.054688 2.339844 C 0.914062 2.199219 0.875 2 0.9375 1.738281 C 0.996094 1.480469 1.140625 1.238281 1.367188 1.011719 C 1.59375 0.785156 1.839844 0.640625 2.097656 0.578125 C 2.359375 0.515625 2.558594 0.554688 2.699219 0.695312 C 2.835938 0.835938 2.878906 1.035156 2.816406 1.296875 C 2.753906 1.554688 2.609375 1.796875 2.382812 2.027344 Z M 2.382812 2.027344 " fill-opacity="1" fill-rule="nonzero"/></g></g></g></g><g fill="#000000" fill-opacity="1"><g transform="translate(56.340976, 42.868093)"><g><path d="M 11.46875 -21.75 C 12.34375 -21.75 13.191406 -21.640625 14.015625 -21.421875 C 14.835938 -21.203125 15.578125 -20.875 16.234375 -20.4375 C 16.867188 -20.019531 17.347656 -19.546875 17.671875 -19.015625 C 18.003906 -18.484375 18.171875 -17.898438 18.171875 -17.265625 C 18.171875 -16.523438 17.960938 -15.957031 17.546875 -15.5625 C 17.140625 -15.164062 16.617188 -14.96875 15.984375 -14.96875 C 15.390625 -14.96875 14.863281 -15.144531 14.40625 -15.5 C 13.957031 -15.851562 13.734375 -16.359375 13.734375 -17.015625 C 13.734375 -17.648438 13.90625 -18.15625 14.25 -18.53125 C 14.59375 -18.914062 14.992188 -19.164062 15.453125 -19.28125 C 15.179688 -19.769531 14.695312 -20.175781 14 -20.5 C 13.300781 -20.832031 12.550781 -21 11.75 -21 C 11.070312 -21 10.390625 -20.832031 9.703125 -20.5 C 9.015625 -20.175781 8.382812 -19.640625 7.8125 -18.890625 C 7.238281 -18.140625 6.769531 -17.113281 6.40625 -15.8125 C 6.050781 -14.507812 5.875 -12.882812 5.875 -10.9375 C 5.875 -8.519531 6.144531 -6.597656 6.6875 -5.171875 C 7.238281 -3.753906 7.957031 -2.734375 8.84375 -2.109375 C 9.738281 -1.492188 10.722656 -1.1875 11.796875 -1.1875 C 12.515625 -1.1875 13.242188 -1.320312 13.984375 -1.59375 C 14.722656 -1.875 15.421875 -2.320312 16.078125 -2.9375 C 16.734375 -3.550781 17.296875 -4.378906 17.765625 -5.421875 L 18.546875 -5.140625 C 18.265625 -4.265625 17.804688 -3.378906 17.171875 -2.484375 C 16.546875 -1.597656 15.726562 -0.863281 14.71875 -0.28125 C 13.707031 0.289062 12.457031 0.578125 10.96875 0.578125 C 9.269531 0.578125 7.734375 0.140625 6.359375 -0.734375 C 4.992188 -1.617188 3.90625 -2.875 3.09375 -4.5 C 2.289062 -6.132812 1.890625 -8.070312 1.890625 -10.3125 C 1.890625 -12.5625 2.289062 -14.539062 3.09375 -16.25 C 3.90625 -17.96875 5.035156 -19.3125 6.484375 -20.28125 C 7.941406 -21.257812 9.601562 -21.75 11.46875 -21.75 Z M 11.46875 -21.75 "/></g></g></g><g fill="#000000" fill-opacity="1"><g transform="translate(76.322053, 42.868093)"><g><path d="M 13.984375 -21.75 C 14.722656 -21.75 15.367188 -21.597656 15.921875 -21.296875 C 16.484375 -20.992188 16.921875 -20.601562 17.234375 -20.125 C 17.554688 -19.644531 17.71875 -19.101562 17.71875 -18.5 C 17.71875 -17.8125 17.503906 -17.207031 17.078125 -16.6875 C 16.648438 -16.164062 16.082031 -15.90625 15.375 -15.90625 C 14.800781 -15.90625 14.296875 -16.085938 13.859375 -16.453125 C 13.421875 -16.828125 13.203125 -17.359375 13.203125 -18.046875 C 13.203125 -18.566406 13.34375 -19.007812 13.625 -19.375 C 13.914062 -19.75 14.238281 -20.046875 14.59375 -20.265625 C 14.40625 -20.535156 14.117188 -20.671875 13.734375 -20.671875 C 12.878906 -20.671875 12.09375 -20.414062 11.375 -19.90625 C 10.664062 -19.40625 10.066406 -18.753906 9.578125 -17.953125 C 9.085938 -17.160156 8.703125 -16.316406 8.421875 -15.421875 C 8.148438 -14.535156 8.015625 -13.710938 8.015625 -12.953125 L 8.015625 -4.234375 C 8.015625 -2.890625 8.40625 -1.988281 9.1875 -1.53125 C 9.96875 -1.082031 11.03125 -0.859375 12.375 -0.859375 L 12.375 0 C 11.738281 -0.03125 10.84375 -0.0664062 9.6875 -0.109375 C 8.539062 -0.148438 7.328125 -0.171875 6.046875 -0.171875 C 5.109375 -0.171875 4.179688 -0.148438 3.265625 -0.109375 C 2.347656 -0.0664062 1.65625 -0.03125 1.1875 0 L 1.1875 -0.859375 C 2.3125 -0.859375 3.113281 -1.0625 3.59375 -1.46875 C 4.070312 -1.882812 4.3125 -2.671875 4.3125 -3.828125 L 4.3125 -16.6875 C 4.3125 -17.925781 4.09375 -18.835938 3.65625 -19.421875 C 3.21875 -20.015625 2.394531 -20.3125 1.1875 -20.3125 L 1.1875 -21.171875 C 2.0625 -21.085938 2.910156 -21.046875 3.734375 -21.046875 C 4.535156 -21.046875 5.296875 -21.09375 6.015625 -21.1875 C 6.742188 -21.28125 7.410156 -21.425781 8.015625 -21.625 L 8.015625 -16.484375 C 8.316406 -17.273438 8.75 -18.078125 9.3125 -18.890625 C 9.875 -19.703125 10.550781 -20.378906 11.34375 -20.921875 C 12.132812 -21.472656 13.015625 -21.75 13.984375 -21.75 Z M 13.984375 -21.75 "/></g></g></g><g fill="#000000" fill-opacity="1"><g transform="translate(94.617484, 42.868093)"><g><path d="M 7.03125 0.28125 C 5.90625 0.28125 4.929688 0.0703125 4.109375 -0.34375 C 3.285156 -0.769531 2.660156 -1.363281 2.234375 -2.125 C 1.816406 -2.894531 1.609375 -3.789062 1.609375 -4.8125 C 1.609375 -6.019531 1.882812 -7.003906 2.4375 -7.765625 C 3 -8.535156 3.71875 -9.148438 4.59375 -9.609375 C 5.476562 -10.078125 6.40625 -10.46875 7.375 -10.78125 C 8.351562 -11.101562 9.28125 -11.40625 10.15625 -11.6875 C 11.03125 -11.976562 11.75 -12.316406 12.3125 -12.703125 C 12.875 -13.085938 13.15625 -13.59375 13.15625 -14.21875 L 13.15625 -16.765625 C 13.15625 -17.921875 12.984375 -18.800781 12.640625 -19.40625 C 12.296875 -20.007812 11.835938 -20.410156 11.265625 -20.609375 C 10.691406 -20.816406 10.046875 -20.921875 9.328125 -20.921875 C 8.640625 -20.921875 7.90625 -20.820312 7.125 -20.625 C 6.34375 -20.4375 5.722656 -20.039062 5.265625 -19.4375 C 5.785156 -19.332031 6.234375 -19.0625 6.609375 -18.625 C 6.992188 -18.1875 7.1875 -17.625 7.1875 -16.9375 C 7.1875 -16.25 6.96875 -15.707031 6.53125 -15.3125 C 6.09375 -14.914062 5.53125 -14.71875 4.84375 -14.71875 C 4.050781 -14.71875 3.46875 -14.96875 3.09375 -15.46875 C 2.726562 -15.976562 2.546875 -16.550781 2.546875 -17.1875 C 2.546875 -17.894531 2.722656 -18.46875 3.078125 -18.90625 C 3.441406 -19.34375 3.894531 -19.753906 4.4375 -20.140625 C 5.070312 -20.578125 5.890625 -20.953125 6.890625 -21.265625 C 7.890625 -21.585938 9.019531 -21.75 10.28125 -21.75 C 11.40625 -21.75 12.363281 -21.617188 13.15625 -21.359375 C 13.945312 -21.097656 14.601562 -20.71875 15.125 -20.21875 C 15.84375 -19.5625 16.3125 -18.757812 16.53125 -17.8125 C 16.75 -16.875 16.859375 -15.742188 16.859375 -14.421875 L 16.859375 -3 C 16.859375 -2.3125 16.957031 -1.816406 17.15625 -1.515625 C 17.363281 -1.210938 17.6875 -1.0625 18.125 -1.0625 C 18.425781 -1.0625 18.710938 -1.128906 18.984375 -1.265625 C 19.265625 -1.410156 19.597656 -1.632812 19.984375 -1.9375 L 20.4375 -1.234375 C 19.851562 -0.796875 19.300781 -0.429688 18.78125 -0.140625 C 18.257812 0.140625 17.5625 0.28125 16.6875 0.28125 C 15.894531 0.28125 15.238281 0.144531 14.71875 -0.125 C 14.195312 -0.394531 13.804688 -0.796875 13.546875 -1.328125 C 13.285156 -1.867188 13.15625 -2.550781 13.15625 -3.375 C 12.414062 -2.132812 11.53125 -1.210938 10.5 -0.609375 C 9.476562 -0.015625 8.320312 0.28125 7.03125 0.28125 Z M 8.515625 -1.359375 C 9.410156 -1.359375 10.25 -1.617188 11.03125 -2.140625 C 11.8125 -2.660156 12.519531 -3.441406 13.15625 -4.484375 L 13.15625 -12.53125 C 12.820312 -12.070312 12.335938 -11.679688 11.703125 -11.359375 C 11.078125 -11.046875 10.394531 -10.734375 9.65625 -10.421875 C 8.914062 -10.109375 8.207031 -9.738281 7.53125 -9.3125 C 6.863281 -8.882812 6.3125 -8.328125 5.875 -7.640625 C 5.4375 -6.960938 5.21875 -6.070312 5.21875 -4.96875 C 5.21875 -3.875 5.507812 -3 6.09375 -2.34375 C 6.6875 -1.6875 7.492188 -1.359375 8.515625 -1.359375 Z M 8.515625 -1.359375 "/></g></g></g><g fill="#000000" fill-opacity="1"><g transform="translate(115.091923, 42.868093)"><g><path d="M 18.046875 -21.375 L 6.171875 -0.609375 L 10.6875 -0.609375 C 11.78125 -0.609375 12.734375 -0.828125 13.546875 -1.265625 C 14.359375 -1.710938 15.007812 -2.421875 15.5 -3.390625 C 15.988281 -4.359375 16.289062 -5.640625 16.40625 -7.234375 L 17.34375 -7.234375 C 17.34375 -5.484375 17.359375 -4.003906 17.390625 -2.796875 C 17.421875 -1.585938 17.460938 -0.597656 17.515625 0.171875 C 16.304688 0.109375 15.050781 0.0625 13.75 0.03125 C 12.445312 0.0078125 11.148438 0 9.859375 0 C 8.492188 0 7.097656 0.0195312 5.671875 0.0625 C 4.242188 0.101562 2.875 0.148438 1.5625 0.203125 L 13.4375 -20.546875 L 8.921875 -20.546875 C 7.710938 -20.546875 6.703125 -20.328125 5.890625 -19.890625 C 5.085938 -19.453125 4.472656 -18.75 4.046875 -17.78125 C 3.617188 -16.8125 3.335938 -15.53125 3.203125 -13.9375 L 2.265625 -13.9375 C 2.265625 -15.71875 2.25 -17.203125 2.21875 -18.390625 C 2.1875 -19.585938 2.144531 -20.566406 2.09375 -21.328125 C 3.300781 -21.273438 4.554688 -21.234375 5.859375 -21.203125 C 7.160156 -21.179688 8.457031 -21.171875 9.75 -21.171875 C 11.113281 -21.171875 12.507812 -21.191406 13.9375 -21.234375 C 15.363281 -21.273438 16.734375 -21.320312 18.046875 -21.375 Z M 18.046875 -21.375 "/></g></g></g><g fill="#000000" fill-opacity="1"><g transform="translate(134.661871, 42.868093)"><g><path d="M 20.3125 -21.171875 L 20.3125 -20.34375 C 19.789062 -20.289062 19.3125 -20.054688 18.875 -19.640625 C 18.4375 -19.234375 18.023438 -18.507812 17.640625 -17.46875 L 10.890625 0.203125 L 10.1875 0.203125 L 2.625 -18 C 2.101562 -19.070312 1.585938 -19.722656 1.078125 -19.953125 C 0.578125 -20.191406 0.160156 -20.3125 -0.171875 -20.3125 L -0.171875 -21.171875 C 0.429688 -21.085938 1.0625 -21.023438 1.71875 -20.984375 C 2.382812 -20.941406 3.097656 -20.921875 3.859375 -20.921875 C 4.710938 -20.921875 5.609375 -20.945312 6.546875 -21 C 7.492188 -21.0625 8.378906 -21.117188 9.203125 -21.171875 L 9.203125 -20.3125 C 8.523438 -20.3125 7.914062 -20.257812 7.375 -20.15625 C 6.84375 -20.0625 6.507812 -19.773438 6.375 -19.296875 C 6.238281 -18.816406 6.398438 -18.003906 6.859375 -16.859375 L 11.921875 -4.3125 L 11.671875 -4.234375 L 16.359375 -16.484375 C 16.710938 -17.390625 16.851562 -18.109375 16.78125 -18.640625 C 16.71875 -19.171875 16.4375 -19.570312 15.9375 -19.84375 C 15.445312 -20.125 14.710938 -20.289062 13.734375 -20.34375 L 13.734375 -21.171875 C 14.222656 -21.140625 14.644531 -21.117188 15 -21.109375 C 15.363281 -21.097656 15.710938 -21.082031 16.046875 -21.0625 C 16.390625 -21.050781 16.769531 -21.046875 17.1875 -21.046875 C 17.8125 -21.046875 18.378906 -21.054688 18.890625 -21.078125 C 19.398438 -21.109375 19.875 -21.140625 20.3125 -21.171875 Z M 10.890625 0.203125 L 9.5 3.78125 C 9.21875 4.46875 8.929688 5.039062 8.640625 5.5 C 8.359375 5.96875 8.054688 6.351562 7.734375 6.65625 C 7.296875 7.070312 6.773438 7.351562 6.171875 7.5 C 5.566406 7.65625 5.015625 7.734375 4.515625 7.734375 C 3.992188 7.734375 3.519531 7.632812 3.09375 7.4375 C 2.675781 7.25 2.34375 6.96875 2.09375 6.59375 C 1.851562 6.226562 1.734375 5.785156 1.734375 5.265625 C 1.734375 4.609375 1.921875 4.078125 2.296875 3.671875 C 2.679688 3.273438 3.21875 3.078125 3.90625 3.078125 C 4.476562 3.078125 4.96875 3.238281 5.375 3.5625 C 5.789062 3.894531 6 4.378906 6 5.015625 C 6 5.484375 5.890625 5.867188 5.671875 6.171875 C 5.453125 6.472656 5.191406 6.703125 4.890625 6.859375 C 4.941406 6.890625 4.988281 6.90625 5.03125 6.90625 C 5.070312 6.90625 5.109375 6.90625 5.140625 6.90625 C 5.878906 6.90625 6.535156 6.648438 7.109375 6.140625 C 7.679688 5.640625 8.191406 4.828125 8.640625 3.703125 L 10.109375 -0.125 Z M 10.890625 0.203125 "/></g></g></g><g fill="#b63327" fill-opacity="1"><g transform="translate(155.394271, 42.868093)"><g><path d="M 10.03125 -21.75 C 11.925781 -21.75 13.425781 -21.300781 14.53125 -20.40625 C 15.644531 -19.519531 16.203125 -18.238281 16.203125 -16.5625 C 16.203125 -15.46875 15.945312 -14.429688 15.4375 -13.453125 C 14.925781 -12.484375 14.257812 -11.550781 13.4375 -10.65625 C 12.613281 -9.769531 11.734375 -8.910156 10.796875 -8.078125 C 9.867188 -7.242188 8.96875 -6.421875 8.09375 -5.609375 C 7.21875 -4.804688 6.476562 -3.992188 5.875 -3.171875 L 14.21875 -3.171875 C 15.34375 -3.171875 16.054688 -3.328125 16.359375 -3.640625 C 16.660156 -3.953125 16.867188 -4.492188 16.984375 -5.265625 L 17.671875 -5.265625 C 17.671875 -3.804688 17.6875 -2.6875 17.71875 -1.90625 C 17.75 -1.125 17.789062 -0.421875 17.84375 0.203125 C 17.59375 0.148438 17.140625 0.109375 16.484375 0.078125 C 15.828125 0.0546875 15.070312 0.0351562 14.21875 0.015625 C 13.375 0.00390625 12.539062 0 11.71875 0 L 2.09375 0 L 2.09375 -0.703125 C 2.914062 -1.609375 3.898438 -2.570312 5.046875 -3.59375 C 6.203125 -4.625 7.320312 -5.75 8.40625 -6.96875 C 9.488281 -8.1875 10.390625 -9.515625 11.109375 -10.953125 C 11.835938 -12.390625 12.203125 -13.957031 12.203125 -15.65625 C 12.203125 -17.21875 11.835938 -18.347656 11.109375 -19.046875 C 10.390625 -19.753906 9.382812 -20.109375 8.09375 -20.109375 C 7 -20.109375 5.984375 -19.785156 5.046875 -19.140625 C 4.117188 -18.492188 3.300781 -17.523438 2.59375 -16.234375 L 1.9375 -16.609375 C 2.34375 -17.484375 2.894531 -18.3125 3.59375 -19.09375 C 4.289062 -19.875 5.164062 -20.507812 6.21875 -21 C 7.28125 -21.5 8.550781 -21.75 10.03125 -21.75 Z M 10.03125 -21.75 "/></g></g></g><g fill="#000000" fill-opacity="1"><g transform="translate(175.087849, 42.868093)"><g><path d="M 8.75 7.734375 C 7.300781 7.734375 5.929688 7.582031 4.640625 7.28125 C 3.359375 6.976562 2.328125 6.503906 1.546875 5.859375 C 0.765625 5.210938 0.375 4.394531 0.375 3.40625 C 0.375 2.445312 0.753906 1.625 1.515625 0.9375 C 2.285156 0.257812 3.328125 -0.253906 4.640625 -0.609375 L 4.890625 0.046875 C 4.285156 0.234375 3.804688 0.613281 3.453125 1.1875 C 3.097656 1.769531 2.921875 2.414062 2.921875 3.125 C 2.921875 4.382812 3.5 5.347656 4.65625 6.015625 C 5.820312 6.691406 7.335938 7.03125 9.203125 7.03125 C 10.441406 7.03125 11.648438 6.867188 12.828125 6.546875 C 14.003906 6.234375 14.972656 5.707031 15.734375 4.96875 C 16.503906 4.226562 16.890625 3.257812 16.890625 2.0625 C 16.890625 1.15625 16.566406 0.410156 15.921875 -0.171875 C 15.285156 -0.765625 14.019531 -1.0625 12.125 -1.0625 L 9.078125 -1.0625 C 8.203125 -1.0625 7.351562 -1.128906 6.53125 -1.265625 C 5.707031 -1.410156 5.035156 -1.703125 4.515625 -2.140625 C 3.992188 -2.578125 3.734375 -3.25 3.734375 -4.15625 C 3.734375 -5.082031 4.117188 -5.976562 4.890625 -6.84375 C 5.660156 -7.707031 7.070312 -8.59375 9.125 -9.5 L 9.625 -9.125 C 8.6875 -8.632812 7.875 -8.132812 7.1875 -7.625 C 6.507812 -7.113281 6.171875 -6.519531 6.171875 -5.84375 C 6.171875 -4.957031 6.828125 -4.515625 8.140625 -4.515625 L 13.28125 -4.515625 C 14.425781 -4.515625 15.484375 -4.347656 16.453125 -4.015625 C 17.429688 -3.691406 18.222656 -3.171875 18.828125 -2.453125 C 19.429688 -1.742188 19.734375 -0.816406 19.734375 0.328125 C 19.734375 1.617188 19.320312 2.820312 18.5 3.9375 C 17.675781 5.0625 16.445312 5.972656 14.8125 6.671875 C 13.1875 7.378906 11.164062 7.734375 8.75 7.734375 Z M 8.96875 -8.75 C 7.625 -8.75 6.398438 -8.972656 5.296875 -9.421875 C 4.203125 -9.878906 3.335938 -10.585938 2.703125 -11.546875 C 2.078125 -12.503906 1.765625 -13.738281 1.765625 -15.25 C 1.765625 -16.757812 2.078125 -17.992188 2.703125 -18.953125 C 3.335938 -19.910156 4.203125 -20.613281 5.296875 -21.0625 C 6.398438 -21.519531 7.625 -21.75 8.96875 -21.75 C 10.332031 -21.75 11.554688 -21.519531 12.640625 -21.0625 C 13.722656 -20.613281 14.578125 -19.910156 15.203125 -18.953125 C 15.835938 -17.992188 16.15625 -16.757812 16.15625 -15.25 C 16.15625 -13.738281 15.835938 -12.503906 15.203125 -11.546875 C 14.578125 -10.585938 13.722656 -9.878906 12.640625 -9.421875 C 11.554688 -8.972656 10.332031 -8.75 8.96875 -8.75 Z M 8.96875 -9.5 C 10.007812 -9.5 10.820312 -9.910156 11.40625 -10.734375 C 12 -11.554688 12.296875 -13.0625 12.296875 -15.25 C 12.296875 -17.445312 12 -18.953125 11.40625 -19.765625 C 10.820312 -20.585938 10.007812 -21 8.96875 -21 C 7.945312 -21 7.132812 -20.585938 6.53125 -19.765625 C 5.925781 -18.953125 5.625 -17.445312 5.625 -15.25 C 5.625 -13.0625 5.925781 -11.554688 6.53125 -10.734375 C 7.132812 -9.910156 7.945312 -9.5 8.96875 -9.5 Z M 14.875 -18.328125 L 14.140625 -18.625 C 14.523438 -19.550781 15.179688 -20.367188 16.109375 -21.078125 C 17.046875 -21.796875 18.019531 -22.15625 19.03125 -22.15625 C 19.75 -22.15625 20.328125 -21.957031 20.765625 -21.5625 C 21.203125 -21.164062 21.421875 -20.570312 21.421875 -19.78125 C 21.421875 -18.925781 21.191406 -18.328125 20.734375 -17.984375 C 20.285156 -17.640625 19.828125 -17.46875 19.359375 -17.46875 C 18.953125 -17.46875 18.566406 -17.609375 18.203125 -17.890625 C 17.847656 -18.179688 17.644531 -18.640625 17.59375 -19.265625 C 17.539062 -19.898438 17.734375 -20.710938 18.171875 -21.703125 L 18.703125 -21.578125 C 17.554688 -21.140625 16.734375 -20.679688 16.234375 -20.203125 C 15.742188 -19.722656 15.289062 -19.097656 14.875 -18.328125 Z M 14.875 -18.328125 "/></g></g></g><g fill="#000000" fill-opacity="1"><g transform="translate(196.795687, 42.868093)"><g><path d="M 11.265625 -21.75 C 13.015625 -21.75 14.585938 -21.363281 15.984375 -20.59375 C 17.390625 -19.820312 18.507812 -18.613281 19.34375 -16.96875 C 20.175781 -15.332031 20.59375 -13.195312 20.59375 -10.5625 C 20.59375 -7.9375 20.175781 -5.804688 19.34375 -4.171875 C 18.507812 -2.546875 17.390625 -1.347656 15.984375 -0.578125 C 14.585938 0.191406 13.015625 0.578125 11.265625 0.578125 C 9.535156 0.578125 7.960938 0.191406 6.546875 -0.578125 C 5.140625 -1.347656 4.019531 -2.546875 3.1875 -4.171875 C 2.351562 -5.804688 1.9375 -7.9375 1.9375 -10.5625 C 1.9375 -13.195312 2.351562 -15.332031 3.1875 -16.96875 C 4.019531 -18.613281 5.140625 -19.820312 6.546875 -20.59375 C 7.960938 -21.363281 9.535156 -21.75 11.265625 -21.75 Z M 11.265625 -20.921875 C 9.703125 -20.921875 8.421875 -20.113281 7.421875 -18.5 C 6.421875 -16.882812 5.921875 -14.238281 5.921875 -10.5625 C 5.921875 -6.894531 6.421875 -4.257812 7.421875 -2.65625 C 8.421875 -1.050781 9.703125 -0.25 11.265625 -0.25 C 12.828125 -0.25 14.109375 -1.050781 15.109375 -2.65625 C 16.109375 -4.257812 16.609375 -6.894531 16.609375 -10.5625 C 16.609375 -14.238281 16.109375 -16.882812 15.109375 -18.5 C 14.109375 -20.113281 12.828125 -20.921875 11.265625 -20.921875 Z M 11.265625 -20.921875 "/></g></g></g><g fill="#000000" fill-opacity="1"><g transform="translate(219.325781, 42.868093)"><g><path d="M 26.921875 -29.109375 L 26.921875 -28.28125 C 25.992188 -28.25 25.289062 -28.109375 24.8125 -27.859375 C 24.332031 -27.617188 24.007812 -27.222656 23.84375 -26.671875 C 23.675781 -26.128906 23.59375 -25.351562 23.59375 -24.34375 L 23.59375 -11.96875 C 23.59375 -10.039062 23.46875 -8.363281 23.21875 -6.9375 C 22.976562 -5.519531 22.539062 -4.289062 21.90625 -3.25 C 21.226562 -2.09375 20.226562 -1.164062 18.90625 -0.46875 C 17.59375 0.226562 16.085938 0.578125 14.390625 0.578125 C 13.078125 0.578125 11.820312 0.414062 10.625 0.09375 C 9.4375 -0.21875 8.390625 -0.796875 7.484375 -1.640625 C 6.691406 -2.410156 6.066406 -3.21875 5.609375 -4.0625 C 5.160156 -4.914062 4.851562 -5.957031 4.6875 -7.1875 C 4.519531 -8.425781 4.4375 -9.976562 4.4375 -11.84375 L 4.4375 -24.75 C 4.4375 -25.757812 4.351562 -26.503906 4.1875 -26.984375 C 4.03125 -27.460938 3.707031 -27.789062 3.21875 -27.96875 C 2.738281 -28.144531 2.035156 -28.25 1.109375 -28.28125 L 1.109375 -29.109375 C 1.679688 -29.078125 2.429688 -29.046875 3.359375 -29.015625 C 4.296875 -28.992188 5.300781 -28.984375 6.375 -28.984375 C 7.332031 -28.984375 8.28125 -28.992188 9.21875 -29.015625 C 10.164062 -29.046875 10.957031 -29.078125 11.59375 -29.109375 L 11.59375 -28.28125 C 10.65625 -28.25 9.945312 -28.144531 9.46875 -27.96875 C 8.988281 -27.789062 8.664062 -27.460938 8.5 -26.984375 C 8.34375 -26.503906 8.265625 -25.757812 8.265625 -24.75 L 8.265625 -11.140625 C 8.265625 -9.742188 8.332031 -8.421875 8.46875 -7.171875 C 8.601562 -5.921875 8.882812 -4.820312 9.3125 -3.875 C 9.738281 -2.9375 10.390625 -2.195312 11.265625 -1.65625 C 12.140625 -1.125 13.304688 -0.859375 14.765625 -0.859375 C 16.835938 -0.859375 18.441406 -1.316406 19.578125 -2.234375 C 20.722656 -3.160156 21.519531 -4.429688 21.96875 -6.046875 C 22.425781 -7.660156 22.65625 -9.484375 22.65625 -11.515625 L 22.65625 -24.34375 C 22.65625 -25.351562 22.535156 -26.128906 22.296875 -26.671875 C 22.066406 -27.222656 21.675781 -27.617188 21.125 -27.859375 C 20.582031 -28.109375 19.84375 -28.25 18.90625 -28.28125 L 18.90625 -29.109375 C 19.40625 -29.078125 20.054688 -29.046875 20.859375 -29.015625 C 21.671875 -28.992188 22.421875 -28.984375 23.109375 -28.984375 C 23.816406 -28.984375 24.519531 -28.992188 25.21875 -29.015625 C 25.914062 -29.046875 26.484375 -29.078125 26.921875 -29.109375 Z M 26.921875 -29.109375 "/></g></g></g><g fill="#000000" fill-opacity="1"><g transform="translate(247.36507, 42.868093)"><g><path d="M 10.53125 -29.5625 C 11.894531 -29.5625 12.929688 -29.398438 13.640625 -29.078125 C 14.359375 -28.765625 14.992188 -28.414062 15.546875 -28.03125 C 15.867188 -27.84375 16.132812 -27.703125 16.34375 -27.609375 C 16.550781 -27.515625 16.75 -27.46875 16.9375 -27.46875 C 17.207031 -27.46875 17.40625 -27.613281 17.53125 -27.90625 C 17.65625 -28.207031 17.757812 -28.660156 17.84375 -29.265625 L 18.78125 -29.265625 C 18.757812 -28.804688 18.726562 -28.253906 18.6875 -27.609375 C 18.644531 -26.960938 18.613281 -26.109375 18.59375 -25.046875 C 18.582031 -23.992188 18.578125 -22.609375 18.578125 -20.890625 L 17.640625 -20.890625 C 17.554688 -22.203125 17.265625 -23.457031 16.765625 -24.65625 C 16.273438 -25.863281 15.554688 -26.851562 14.609375 -27.625 C 13.671875 -28.394531 12.429688 -28.78125 10.890625 -28.78125 C 9.441406 -28.78125 8.242188 -28.335938 7.296875 -27.453125 C 6.347656 -26.578125 5.875 -25.429688 5.875 -24.015625 C 5.875 -22.773438 6.1875 -21.738281 6.8125 -20.90625 C 7.445312 -20.070312 8.289062 -19.316406 9.34375 -18.640625 C 10.40625 -17.972656 11.550781 -17.253906 12.78125 -16.484375 C 14.207031 -15.609375 15.472656 -14.738281 16.578125 -13.875 C 17.691406 -13.007812 18.570312 -12.054688 19.21875 -11.015625 C 19.863281 -9.972656 20.1875 -8.710938 20.1875 -7.234375 C 20.1875 -5.484375 19.785156 -4.03125 18.984375 -2.875 C 18.191406 -1.726562 17.140625 -0.863281 15.828125 -0.28125 C 14.515625 0.289062 13.0625 0.578125 11.46875 0.578125 C 10.019531 0.578125 8.867188 0.410156 8.015625 0.078125 C 7.160156 -0.242188 6.4375 -0.585938 5.84375 -0.953125 C 5.238281 -1.328125 4.769531 -1.515625 4.4375 -1.515625 C 4.164062 -1.515625 3.96875 -1.363281 3.84375 -1.0625 C 3.71875 -0.757812 3.613281 -0.3125 3.53125 0.28125 L 2.59375 0.28125 C 2.644531 -0.289062 2.675781 -0.96875 2.6875 -1.75 C 2.707031 -2.53125 2.722656 -3.550781 2.734375 -4.8125 C 2.742188 -6.070312 2.75 -7.660156 2.75 -9.578125 L 3.703125 -9.578125 C 3.804688 -7.929688 4.113281 -6.394531 4.625 -4.96875 C 5.132812 -3.550781 5.914062 -2.410156 6.96875 -1.546875 C 8.019531 -0.679688 9.425781 -0.25 11.1875 -0.25 C 12.082031 -0.25 12.9375 -0.429688 13.75 -0.796875 C 14.5625 -1.171875 15.226562 -1.757812 15.75 -2.5625 C 16.269531 -3.375 16.53125 -4.425781 16.53125 -5.71875 C 16.53125 -6.84375 16.257812 -7.820312 15.71875 -8.65625 C 15.1875 -9.488281 14.441406 -10.269531 13.484375 -11 C 12.523438 -11.726562 11.398438 -12.472656 10.109375 -13.234375 C 8.828125 -14.023438 7.625 -14.832031 6.5 -15.65625 C 5.375 -16.476562 4.472656 -17.429688 3.796875 -18.515625 C 3.128906 -19.597656 2.796875 -20.910156 2.796875 -22.453125 C 2.796875 -24.066406 3.15625 -25.398438 3.875 -26.453125 C 4.601562 -27.503906 5.554688 -28.285156 6.734375 -28.796875 C 7.921875 -29.304688 9.1875 -29.5625 10.53125 -29.5625 Z M 10.53125 -29.5625 "/></g></g></g><g fill="#000000" fill-opacity="1"><g transform="translate(269.56627, 42.868093)"><g><path d="M 13.28125 -29.3125 L 23.3125 -3.453125 C 23.71875 -2.410156 24.179688 -1.71875 24.703125 -1.375 C 25.222656 -1.03125 25.703125 -0.847656 26.140625 -0.828125 L 26.140625 0 C 25.597656 -0.0507812 24.925781 -0.0820312 24.125 -0.09375 C 23.332031 -0.113281 22.539062 -0.125 21.75 -0.125 C 20.675781 -0.125 19.671875 -0.113281 18.734375 -0.09375 C 17.804688 -0.0820312 17.054688 -0.0507812 16.484375 0 L 16.484375 -0.828125 C 17.878906 -0.878906 18.769531 -1.113281 19.15625 -1.53125 C 19.539062 -1.957031 19.457031 -2.875 18.90625 -4.28125 L 11.265625 -24.703125 L 11.921875 -25.234375 L 4.765625 -6.65625 C 4.328125 -5.5625 4.066406 -4.632812 3.984375 -3.875 C 3.898438 -3.125 3.972656 -2.53125 4.203125 -2.09375 C 4.441406 -1.65625 4.84375 -1.335938 5.40625 -1.140625 C 5.96875 -0.953125 6.671875 -0.847656 7.515625 -0.828125 L 7.515625 0 C 6.753906 -0.0507812 5.953125 -0.0820312 5.109375 -0.09375 C 4.273438 -0.113281 3.503906 -0.125 2.796875 -0.125 C 2.109375 -0.125 1.523438 -0.113281 1.046875 -0.09375 C 0.566406 -0.0820312 0.125 -0.0507812 -0.28125 0 L -0.28125 -0.828125 C 0.257812 -0.960938 0.816406 -1.28125 1.390625 -1.78125 C 1.972656 -2.289062 2.492188 -3.164062 2.953125 -4.40625 L 12.625 -29.3125 C 12.726562 -29.3125 12.832031 -29.3125 12.9375 -29.3125 C 13.050781 -29.3125 13.164062 -29.3125 13.28125 -29.3125 Z M 18.296875 -11.84375 L 18.296875 -11.015625 L 6.046875 -11.015625 L 6.453125 -11.84375 Z M 18.296875 -11.84375 "/></g></g></g></svg>