<svg xmlns="http://www.w3.org/2000/svg" xmlns:xlink="http://www.w3.org/1999/xlink" width="302" zoomAndPan="magnify" viewBox="0 0 226.5 79.499998" height="106" preserveAspectRatio="xMidYMid meet" version="1.0"><defs><filter x="0%" y="0%" width="100%" height="100%" id="39d14694a2"><feColorMatrix values="0 0 0 0 1 0 0 0 0 1 0 0 0 0 1 0 0 0 1 0" color-interpolation-filters="sRGB"/></filter><g/><clipPath id="67dbe06e53"><path d="M 0.460938 0 L 79.460938 0 L 79.460938 79.003906 L 0.460938 79.003906 Z M 0.460938 0 " clip-rule="nonzero"/></clipPath><mask id="11b7e62304"><g filter="url(#39d14694a2)"><rect x="-22.65" width="271.8" fill="#000000" y="-7.95" height="95.399997" fill-opacity="0.99"/></g></mask><clipPath id="ddba6aa671"><path d="M 0.460938 0 L 79.460938 0 L 79.460938 79 L 0.460938 79 Z M 0.460938 0 " clip-rule="nonzero"/></clipPath><clipPath id="850e5a4e9e"><rect x="0" width="80" y="0" height="80"/></clipPath><mask id="c5f124e2b8"><g filter="url(#39d14694a2)"><rect x="-22.65" width="271.8" fill="#000000" y="-7.95" height="95.399997" fill-opacity="0.99"/></g></mask><clipPath id="1a2e788bea"><path d="M 0.484375 0.558594 L 63.925781 0.558594 L 63.925781 58.988281 L 0.484375 58.988281 Z M 0.484375 0.558594 " clip-rule="nonzero"/></clipPath><clipPath id="eceb362f86"><rect x="0" width="64" y="0" height="59"/></clipPath><mask id="7837d87c18"><g filter="url(#39d14694a2)"><rect x="-22.65" width="271.8" fill="#000000" y="-7.95" height="95.399997" fill-opacity="0.99"/></g></mask><clipPath id="eba97e7f11"><path d="M 0.207031 0.273438 L 38.128906 0.273438 L 38.128906 38.195312 L 0.207031 38.195312 Z M 0.207031 0.273438 " clip-rule="nonzero"/></clipPath><clipPath id="6a07531dea"><rect x="0" width="39" y="0" height="39"/></clipPath><mask id="83cc5aaf06"><g filter="url(#39d14694a2)"><rect x="-22.65" width="271.8" fill="#000000" y="-7.95" height="95.399997" fill-opacity="0.99"/></g></mask><clipPath id="f255e6c012"><path d="M 0.402344 0.464844 L 35.9375 0.464844 L 35.9375 36 L 0.402344 36 Z M 0.402344 0.464844 " clip-rule="nonzero"/></clipPath><clipPath id="fbe045abbb"><rect x="0" width="36" y="0" height="36"/></clipPath><mask id="d597ed08b1"><g filter="url(#39d14694a2)"><rect x="-22.65" width="271.8" fill="#000000" y="-7.95" height="95.399997" fill-opacity="0.99"/></g></mask><clipPath id="d304f67cdc"><rect x="0" width="8" y="0" height="8"/></clipPath><mask id="c9b94ae2d0"><g filter="url(#39d14694a2)"><rect x="-22.65" width="271.8" fill="#000000" y="-7.95" height="95.399997" fill-opacity="0.99"/></g></mask><clipPath id="b98735ea86"><rect x="0" width="9" y="0" height="9"/></clipPath><mask id="69c185544e"><g filter="url(#39d14694a2)"><rect x="-22.65" width="271.8" fill="#000000" y="-7.95" height="95.399997" fill-opacity="0.99"/></g></mask><clipPath id="30d83b5822"><rect x="0" width="9" y="0" height="8"/></clipPath><mask id="78e6dfa33d"><g filter="url(#39d14694a2)"><rect x="-22.65" width="271.8" fill="#000000" y="-7.95" height="95.399997" fill-opacity="0.99"/></g></mask><clipPath id="9970e85970"><rect x="0" width="9" y="0" height="8"/></clipPath><mask id="9f04c60535"><g filter="url(#39d14694a2)"><rect x="-22.65" width="271.8" fill="#000000" y="-7.95" height="95.399997" fill-opacity="0.99"/></g></mask><clipPath id="b14beaae64"><path d="M 0.484375 0.644531 L 20.757812 0.644531 L 20.757812 20.917969 L 0.484375 20.917969 Z M 0.484375 0.644531 " clip-rule="nonzero"/></clipPath><clipPath id="5c716adbec"><rect x="0" width="21" y="0" height="21"/></clipPath><mask id="3359f42c20"><g filter="url(#39d14694a2)"><rect x="-22.65" width="271.8" fill="#000000" y="-7.95" height="95.399997" fill-opacity="0.99"/></g></mask><clipPath id="1eaffadb99"><path d="M 1 1 L 5 1 L 5 4.910156 L 1 4.910156 Z M 1 1 " clip-rule="nonzero"/></clipPath><clipPath id="a94b29a544"><rect x="0" width="6" y="0" height="5"/></clipPath><mask id="524c42bc17"><g filter="url(#39d14694a2)"><rect x="-22.65" width="271.8" fill="#000000" y="-7.95" height="95.399997" fill-opacity="0.99"/></g></mask><clipPath id="96fa3a364f"><rect x="0" width="6" y="0" height="6"/></clipPath><clipPath id="b479d75ba2"><path d="M 209 31 L 225.542969 31 L 225.542969 50 L 209 50 Z M 209 31 " clip-rule="nonzero"/></clipPath></defs><g clip-path="url(#67dbe06e53)"><g mask="url(#11b7e62304)"><g transform="matrix(1, 0, 0, 1, 0, 0)"><g clip-path="url(#850e5a4e9e)"><g clip-path="url(#ddba6aa671)"><path fill="#158570" d="M 67.835938 67.332031 C 66.925781 68.246094 65.96875 69.109375 64.972656 69.929688 C 63.976562 70.746094 62.941406 71.515625 61.867188 72.230469 C 60.796875 72.949219 59.691406 73.609375 58.554688 74.21875 C 57.417969 74.824219 56.253906 75.375 55.0625 75.871094 C 53.871094 76.363281 52.65625 76.796875 51.421875 77.171875 C 50.1875 77.546875 48.9375 77.859375 47.671875 78.109375 C 46.410156 78.363281 45.132812 78.550781 43.851562 78.679688 C 42.566406 78.804688 41.28125 78.867188 39.992188 78.867188 C 38.703125 78.867188 37.414062 78.804688 36.132812 78.679688 C 34.847656 78.550781 33.574219 78.363281 32.308594 78.109375 C 31.042969 77.859375 29.792969 77.546875 28.558594 77.171875 C 27.324219 76.796875 26.113281 76.363281 24.921875 75.871094 C 23.730469 75.375 22.566406 74.824219 21.429688 74.21875 C 20.289062 73.609375 19.1875 72.949219 18.113281 72.230469 C 17.042969 71.515625 16.007812 70.746094 15.007812 69.929688 C 14.011719 69.109375 13.058594 68.246094 12.144531 67.332031 C 11.234375 66.421875 10.367188 65.46875 9.550781 64.46875 C 8.734375 63.472656 7.964844 62.4375 7.25 61.367188 C 6.53125 60.292969 5.871094 59.1875 5.261719 58.050781 C 4.652344 56.914062 4.101562 55.75 3.609375 54.558594 C 3.117188 53.367188 2.683594 52.152344 2.308594 50.917969 C 1.933594 49.6875 1.621094 48.4375 1.367188 47.171875 C 1.117188 45.90625 0.929688 44.632812 0.800781 43.347656 C 0.675781 42.066406 0.613281 40.777344 0.613281 39.488281 C 0.613281 38.199219 0.675781 36.914062 0.800781 35.628906 C 0.929688 34.34375 1.117188 33.070312 1.367188 31.804688 C 1.621094 30.542969 1.933594 29.292969 2.308594 28.058594 C 2.683594 26.824219 3.117188 25.609375 3.609375 24.417969 C 4.101562 23.226562 4.652344 22.0625 5.261719 20.925781 C 5.871094 19.789062 6.53125 18.683594 7.25 17.609375 C 7.964844 16.539062 8.734375 15.503906 9.550781 14.507812 C 10.367188 13.511719 11.234375 12.554688 12.144531 11.644531 C 13.058594 10.730469 14.011719 9.867188 15.007812 9.046875 C 16.007812 8.230469 17.042969 7.460938 18.113281 6.746094 C 19.1875 6.03125 20.289062 5.367188 21.429688 4.757812 C 22.566406 4.152344 23.730469 3.601562 24.921875 3.105469 C 26.113281 2.613281 27.324219 2.179688 28.558594 1.804688 C 29.792969 1.429688 31.042969 1.117188 32.308594 0.867188 C 33.574219 0.613281 34.847656 0.425781 36.132812 0.300781 C 37.414062 0.171875 38.703125 0.109375 39.992188 0.109375 C 41.28125 0.109375 42.566406 0.171875 43.851562 0.300781 C 45.132812 0.425781 46.410156 0.613281 47.671875 0.867188 C 48.9375 1.117188 50.1875 1.429688 51.421875 1.804688 C 52.65625 2.179688 53.871094 2.613281 55.0625 3.105469 C 56.253906 3.601562 57.417969 4.152344 58.554688 4.757812 C 59.691406 5.367188 60.796875 6.03125 61.867188 6.746094 C 62.941406 7.460938 63.976562 8.230469 64.972656 9.046875 C 65.96875 9.867188 66.925781 10.730469 67.835938 11.644531 C 68.75 12.554688 69.613281 13.511719 70.433594 14.507812 C 71.25 15.503906 72.015625 16.539062 72.734375 17.609375 C 73.449219 18.683594 74.113281 19.789062 74.71875 20.925781 C 75.328125 22.0625 75.878906 23.226562 76.371094 24.417969 C 76.867188 25.609375 77.300781 26.824219 77.675781 28.058594 C 78.050781 29.292969 78.363281 30.542969 78.613281 31.804688 C 78.867188 33.070312 79.054688 34.34375 79.179688 35.628906 C 79.308594 36.914062 79.371094 38.199219 79.371094 39.488281 C 79.371094 40.777344 79.308594 42.066406 79.179688 43.347656 C 79.054688 44.632812 78.867188 45.90625 78.613281 47.171875 C 78.363281 48.4375 78.050781 49.6875 77.675781 50.917969 C 77.300781 52.152344 76.867188 53.367188 76.371094 54.558594 C 75.878906 55.75 75.328125 56.914062 74.71875 58.050781 C 74.113281 59.1875 73.449219 60.292969 72.734375 61.367188 C 72.015625 62.4375 71.25 63.472656 70.433594 64.46875 C 69.613281 65.46875 68.75 66.421875 67.835938 67.332031 Z M 67.835938 67.332031 " fill-opacity="1" fill-rule="nonzero"/></g></g></g></g></g><g mask="url(#c5f124e2b8)"><g transform="matrix(1, 0, 0, 1, 15, 19)"><g clip-path="url(#eceb362f86)"><g clip-path="url(#1a2e788bea)"><path fill="#000000" d="M 16.507812 0.578125 C 16.117188 0.585938 15.707031 0.695312 15.277344 0.910156 C 14.847656 1.121094 14.449219 1.410156 14.085938 1.777344 C 14.054688 1.808594 14.023438 1.839844 13.996094 1.871094 C 10.339844 1.171875 7.5625 1.382812 6.671875 2.273438 C 6.644531 2.300781 6.617188 2.328125 6.59375 2.359375 C 6.585938 2.367188 6.582031 2.375 6.574219 2.382812 C 6.558594 2.402344 6.542969 2.425781 6.527344 2.449219 C 6.523438 2.457031 6.515625 2.464844 6.511719 2.472656 C 6.492188 2.5 6.476562 2.53125 6.460938 2.5625 C 6.457031 2.566406 6.457031 2.570312 6.457031 2.574219 C 6.441406 2.601562 6.429688 2.628906 6.421875 2.65625 C 6.417969 2.667969 6.414062 2.675781 6.410156 2.683594 C 6.402344 2.710938 6.394531 2.738281 6.390625 2.765625 C 6.386719 2.769531 6.386719 2.777344 6.386719 2.78125 C 6.378906 2.816406 6.375 2.847656 6.371094 2.882812 C 6.367188 2.890625 6.367188 2.902344 6.367188 2.910156 C 6.367188 2.9375 6.367188 2.960938 6.367188 2.988281 C 6.367188 3 6.367188 3.011719 6.367188 3.019531 C 6.367188 3.050781 6.367188 3.078125 6.371094 3.105469 C 6.371094 3.113281 6.375 3.125 6.375 3.132812 C 6.378906 3.167969 6.382812 3.203125 6.390625 3.238281 C 6.402344 3.289062 6.417969 3.34375 6.4375 3.402344 C 6.441406 3.414062 6.445312 3.429688 6.449219 3.441406 C 6.464844 3.488281 6.484375 3.539062 6.503906 3.585938 C 6.511719 3.597656 6.515625 3.613281 6.519531 3.625 C 6.546875 3.683594 6.578125 3.742188 6.609375 3.804688 C 6.617188 3.820312 6.625 3.832031 6.632812 3.847656 C 6.660156 3.898438 6.691406 3.949219 6.722656 4 C 6.734375 4.015625 6.742188 4.03125 6.753906 4.050781 C 6.792969 4.109375 6.835938 4.175781 6.882812 4.238281 C 6.945312 4.332031 7.015625 4.425781 7.09375 4.519531 C 7.113281 4.542969 7.132812 4.570312 7.152344 4.59375 C 7.214844 4.667969 7.277344 4.746094 7.347656 4.824219 C 7.371094 4.851562 7.398438 4.882812 7.421875 4.910156 C 7.507812 5.003906 7.59375 5.101562 7.6875 5.195312 C 7.695312 5.207031 7.703125 5.214844 7.710938 5.222656 C 7.796875 5.3125 7.882812 5.402344 7.976562 5.496094 L 19.921875 17.441406 L 10.140625 27.226562 C 9.863281 27.070312 9.589844 26.925781 9.3125 26.785156 C 9.410156 26.378906 9.351562 26.066406 9.132812 25.847656 C 8.960938 25.675781 8.726562 25.601562 8.425781 25.628906 C 8.125 25.652344 7.816406 25.769531 7.5 25.980469 C 4.308594 24.738281 1.597656 24.605469 0.914062 25.285156 C 0.894531 25.308594 0.875 25.328125 0.859375 25.347656 C 0.855469 25.355469 0.851562 25.363281 0.847656 25.367188 C 0.835938 25.382812 0.828125 25.398438 0.816406 25.414062 C 0.8125 25.421875 0.808594 25.429688 0.804688 25.4375 C 0.800781 25.453125 0.792969 25.46875 0.789062 25.480469 C 0.785156 25.492188 0.78125 25.5 0.777344 25.511719 C 0.773438 25.523438 0.769531 25.539062 0.769531 25.554688 C 0.765625 25.5625 0.765625 25.574219 0.761719 25.582031 C 0.761719 25.597656 0.761719 25.613281 0.757812 25.628906 C 0.757812 25.636719 0.757812 25.648438 0.757812 25.660156 C 0.757812 25.679688 0.761719 25.703125 0.765625 25.726562 C 0.765625 25.726562 0.765625 25.730469 0.765625 25.734375 C 0.769531 25.761719 0.773438 25.789062 0.78125 25.816406 C 0.785156 25.824219 0.789062 25.835938 0.792969 25.847656 C 0.796875 25.863281 0.804688 25.882812 0.808594 25.898438 C 0.816406 25.910156 0.820312 25.921875 0.824219 25.9375 C 0.832031 25.949219 0.839844 25.964844 0.84375 25.980469 C 0.867188 26.027344 0.894531 26.074219 0.925781 26.125 C 0.929688 26.132812 0.9375 26.144531 0.945312 26.152344 C 0.976562 26.203125 1.011719 26.257812 1.054688 26.308594 C 1.105469 26.375 1.160156 26.445312 1.222656 26.515625 C 1.242188 26.535156 1.261719 26.554688 1.28125 26.578125 C 1.328125 26.628906 1.375 26.679688 1.429688 26.730469 C 1.4375 26.742188 1.445312 26.75 1.453125 26.757812 L 33.574219 58.875 C 37.21875 58.066406 40.679688 56.765625 43.953125 54.976562 C 47.230469 53.183594 50.191406 50.96875 52.835938 48.332031 C 55.707031 45.453125 58.074219 42.203125 59.9375 38.585938 C 61.800781 34.972656 63.074219 31.160156 63.753906 27.148438 L 41.042969 4.4375 C 38.796875 2.191406 35.175781 2.191406 32.929688 4.4375 L 28.894531 8.472656 C 27.21875 7.253906 25.5 6.214844 23.792969 5.335938 C 23.792969 4.910156 23.667969 4.574219 23.417969 4.324219 C 23.195312 4.101562 22.902344 3.976562 22.535156 3.953125 C 22.167969 3.925781 21.773438 4.003906 21.351562 4.179688 C 20.132812 3.652344 18.9375 3.210938 17.78125 2.84375 C 17.921875 2.453125 17.96875 2.09375 17.933594 1.761719 C 17.894531 1.429688 17.773438 1.160156 17.566406 0.953125 C 17.304688 0.695312 16.953125 0.570312 16.507812 0.578125 Z M 16.507812 0.578125 " fill-opacity="0.07" fill-rule="evenodd"/></g></g></g></g><g mask="url(#7837d87c18)"><g transform="matrix(1, 0, 0, 1, 21, 20)"><g clip-path="url(#6a07531dea)"><g clip-path="url(#eba97e7f11)"><path fill="#ffffff" d="M 19.113281 19.363281 C 9.027344 9.273438 -1.582031 3.527344 0.667969 1.273438 C 2.921875 -0.980469 17.183594 1.117188 27.273438 11.207031 C 37.363281 21.296875 39.457031 35.558594 37.203125 37.808594 C 34.953125 40.0625 29.203125 29.453125 19.113281 19.363281 Z M 19.113281 19.363281 " fill-opacity="1" fill-rule="evenodd"/></g></g></g></g><g mask="url(#83cc5aaf06)"><g transform="matrix(1, 0, 0, 1, 22, 21)"><g clip-path="url(#fbe045abbb)"><g clip-path="url(#f255e6c012)"><path fill="#ffffff" d="M 34.042969 2.4375 C 36.289062 4.6875 36.289062 8.304688 34.042969 10.550781 L 9.699219 34.894531 C 7.453125 37.140625 6.140625 34.925781 3.890625 32.675781 C 1.644531 30.429688 -0.660156 29.027344 1.585938 26.78125 L 25.929688 2.4375 C 28.175781 0.191406 31.792969 0.191406 34.042969 2.4375 Z M 34.042969 2.4375 " fill-opacity="1" fill-rule="evenodd"/></g></g></g></g><g mask="url(#d597ed08b1)"><g transform="matrix(1, 0, 0, 1, 50, 39)"><g clip-path="url(#d304f67cdc)"><path fill="#ffffff" d="M 5.332031 5.542969 C 5.046875 5.828125 4.738281 6.070312 4.40625 6.265625 C 4.078125 6.460938 3.746094 6.597656 3.421875 6.675781 C 3.09375 6.753906 2.796875 6.765625 2.523438 6.710938 C 2.25 6.65625 2.027344 6.542969 1.851562 6.367188 C 1.675781 6.1875 1.558594 5.964844 1.503906 5.691406 C 1.453125 5.421875 1.464844 5.121094 1.539062 4.792969 C 1.617188 4.46875 1.753906 4.140625 1.949219 3.808594 C 2.144531 3.476562 2.386719 3.167969 2.671875 2.882812 C 2.957031 2.597656 3.265625 2.355469 3.597656 2.160156 C 3.929688 1.964844 4.257812 1.828125 4.582031 1.75 C 4.910156 1.671875 5.210938 1.660156 5.480469 1.714844 C 5.753906 1.769531 5.976562 1.882812 6.15625 2.0625 C 6.332031 2.238281 6.445312 2.460938 6.5 2.734375 C 6.554688 3.007812 6.542969 3.304688 6.464844 3.632812 C 6.386719 3.957031 6.25 4.289062 6.054688 4.617188 C 5.859375 4.949219 5.617188 5.257812 5.332031 5.542969 Z M 5.332031 5.542969 " fill-opacity="1" fill-rule="nonzero"/></g></g></g><g mask="url(#c9b94ae2d0)"><g transform="matrix(1, 0, 0, 1, 32, 21)"><g clip-path="url(#b98735ea86)"><path fill="#ffffff" d="M 5.597656 5.808594 C 5.3125 6.09375 5.003906 6.335938 4.671875 6.53125 C 4.339844 6.726562 4.011719 6.863281 3.6875 6.941406 C 3.359375 7.015625 3.058594 7.027344 2.789062 6.976562 C 2.515625 6.921875 2.292969 6.804688 2.113281 6.628906 C 1.9375 6.453125 1.824219 6.230469 1.769531 5.957031 C 1.714844 5.683594 1.726562 5.386719 1.804688 5.058594 C 1.882812 4.734375 2.019531 4.402344 2.214844 4.074219 C 2.410156 3.742188 2.652344 3.433594 2.9375 3.148438 C 3.222656 2.863281 3.53125 2.621094 3.863281 2.425781 C 4.191406 2.230469 4.523438 2.09375 4.847656 2.015625 C 5.175781 1.9375 5.472656 1.925781 5.746094 1.980469 C 6.019531 2.035156 6.242188 2.148438 6.417969 2.324219 C 6.597656 2.5 6.710938 2.726562 6.765625 3 C 6.816406 3.269531 6.804688 3.570312 6.730469 3.894531 C 6.652344 4.222656 6.515625 4.550781 6.320312 4.882812 C 6.125 5.214844 5.882812 5.523438 5.597656 5.808594 Z M 5.597656 5.808594 " fill-opacity="1" fill-rule="nonzero"/></g></g></g><g mask="url(#69c185544e)"><g transform="matrix(1, 0, 0, 1, 26, 18)"><g clip-path="url(#30d83b5822)"><path fill="#ffffff" d="M 5.746094 5.4375 C 5.457031 5.722656 5.152344 5.964844 4.820312 6.160156 C 4.488281 6.355469 4.160156 6.492188 3.832031 6.570312 C 3.507812 6.648438 3.207031 6.660156 2.933594 6.605469 C 2.664062 6.550781 2.4375 6.4375 2.261719 6.261719 C 2.085938 6.082031 1.96875 5.859375 1.917969 5.585938 C 1.863281 5.316406 1.875 5.015625 1.953125 4.6875 C 2.027344 4.363281 2.164062 4.035156 2.363281 3.703125 C 2.558594 3.371094 2.796875 3.0625 3.085938 2.777344 C 3.371094 2.492188 3.679688 2.25 4.007812 2.054688 C 4.339844 1.859375 4.667969 1.722656 4.996094 1.644531 C 5.320312 1.566406 5.621094 1.554688 5.894531 1.609375 C 6.164062 1.664062 6.390625 1.777344 6.566406 1.957031 C 6.742188 2.132812 6.859375 2.355469 6.910156 2.628906 C 6.964844 2.902344 6.953125 3.199219 6.875 3.527344 C 6.800781 3.851562 6.664062 4.183594 6.46875 4.511719 C 6.269531 4.84375 6.03125 5.152344 5.746094 5.4375 Z M 5.746094 5.4375 " fill-opacity="1" fill-rule="nonzero"/></g></g></g><g mask="url(#78e6dfa33d)"><g transform="matrix(1, 0, 0, 1, 53, 45)"><g clip-path="url(#9970e85970)"><path fill="#ffffff" d="M 5.703125 5.398438 C 5.417969 5.683594 5.109375 5.921875 4.777344 6.117188 C 4.445312 6.316406 4.117188 6.453125 3.792969 6.527344 C 3.464844 6.605469 3.164062 6.617188 2.894531 6.5625 C 2.621094 6.511719 2.398438 6.394531 2.21875 6.21875 C 2.042969 6.042969 1.929688 5.816406 1.875 5.546875 C 1.820312 5.273438 1.832031 4.972656 1.910156 4.648438 C 1.988281 4.320312 2.125 3.992188 2.320312 3.660156 C 2.515625 3.328125 2.757812 3.023438 3.042969 2.734375 C 3.328125 2.449219 3.636719 2.210938 3.96875 2.015625 C 4.296875 1.816406 4.628906 1.679688 4.953125 1.605469 C 5.28125 1.527344 5.578125 1.515625 5.851562 1.570312 C 6.125 1.621094 6.347656 1.738281 6.523438 1.914062 C 6.703125 2.089844 6.816406 2.316406 6.871094 2.585938 C 6.925781 2.859375 6.914062 3.160156 6.835938 3.484375 C 6.757812 3.8125 6.621094 4.140625 6.425781 4.472656 C 6.230469 4.804688 5.988281 5.109375 5.703125 5.398438 Z M 5.703125 5.398438 " fill-opacity="1" fill-rule="nonzero"/></g></g></g><g mask="url(#9f04c60535)"><g transform="matrix(1, 0, 0, 1, 15, 43)"><g clip-path="url(#5c716adbec)"><g clip-path="url(#b14beaae64)"><path fill="#ffffff" d="M 10.824219 10.65625 C 5.5 5.332031 -0.273438 2.476562 0.914062 1.285156 C 2.105469 0.0976562 9.453125 1.382812 14.777344 6.703125 C 20.097656 12.027344 21.382812 19.375 20.195312 20.566406 C 19.003906 21.753906 16.148438 15.976562 10.824219 10.65625 Z M 10.824219 10.65625 " fill-opacity="1" fill-rule="evenodd"/></g></g></g></g><g mask="url(#3359f42c20)"><g transform="matrix(1, 0, 0, 1, 30, 54)"><g clip-path="url(#a94b29a544)"><g clip-path="url(#1eaffadb99)"><path fill="#ffffff" d="M 4.148438 3.410156 C 3.976562 3.578125 3.796875 3.722656 3.597656 3.835938 C 3.402344 3.953125 3.207031 4.035156 3.015625 4.082031 C 2.820312 4.125 2.644531 4.132812 2.484375 4.101562 C 2.320312 4.070312 2.1875 4 2.085938 3.898438 C 1.980469 3.792969 1.910156 3.660156 1.878906 3.5 C 1.847656 3.335938 1.855469 3.160156 1.902344 2.964844 C 1.945312 2.773438 2.027344 2.578125 2.144531 2.382812 C 2.261719 2.1875 2.402344 2.003906 2.570312 1.835938 C 2.742188 1.664062 2.921875 1.523438 3.117188 1.40625 C 3.316406 1.289062 3.511719 1.210938 3.703125 1.164062 C 3.898438 1.117188 4.074219 1.113281 4.234375 1.144531 C 4.394531 1.175781 4.527344 1.242188 4.632812 1.347656 C 4.738281 1.453125 4.804688 1.585938 4.835938 1.746094 C 4.871094 1.90625 4.863281 2.085938 4.816406 2.277344 C 4.773438 2.472656 4.691406 2.667969 4.574219 2.863281 C 4.457031 3.058594 4.316406 3.242188 4.148438 3.410156 Z M 4.148438 3.410156 " fill-opacity="1" fill-rule="nonzero"/></g></g></g></g><g mask="url(#524c42bc17)"><g transform="matrix(1, 0, 0, 1, 20, 43)"><g clip-path="url(#96fa3a364f)"><path fill="#ffffff" d="M 3.644531 3.90625 C 3.476562 4.078125 3.292969 4.21875 3.097656 4.335938 C 2.902344 4.453125 2.707031 4.53125 2.511719 4.578125 C 2.320312 4.625 2.140625 4.632812 1.980469 4.597656 C 1.820312 4.566406 1.6875 4.5 1.582031 4.394531 C 1.476562 4.289062 1.410156 4.15625 1.378906 3.996094 C 1.347656 3.835938 1.351562 3.65625 1.398438 3.464844 C 1.445312 3.269531 1.527344 3.078125 1.640625 2.878906 C 1.757812 2.683594 1.898438 2.5 2.070312 2.332031 C 2.238281 2.164062 2.421875 2.019531 2.617188 1.90625 C 2.8125 1.789062 3.007812 1.707031 3.199219 1.664062 C 3.394531 1.617188 3.570312 1.609375 3.734375 1.640625 C 3.894531 1.671875 4.027344 1.742188 4.132812 1.847656 C 4.234375 1.949219 4.304688 2.082031 4.335938 2.246094 C 4.367188 2.40625 4.359375 2.582031 4.316406 2.777344 C 4.269531 2.96875 4.1875 3.164062 4.074219 3.359375 C 3.957031 3.554688 3.8125 3.738281 3.644531 3.90625 Z M 3.644531 3.90625 " fill-opacity="1" fill-rule="nonzero"/></g></g></g><g fill="#000000" fill-opacity="1"><g transform="translate(79.345018, 49.693906)"><g><path d="M 7.015625 -13.296875 C 7.546875 -13.296875 8.0625 -13.226562 8.5625 -13.09375 C 9.070312 -12.957031 9.523438 -12.753906 9.921875 -12.484375 C 10.304688 -12.234375 10.597656 -11.941406 10.796875 -11.609375 C 11.003906 -11.285156 11.109375 -10.929688 11.109375 -10.546875 C 11.109375 -10.097656 10.976562 -9.75 10.71875 -9.5 C 10.46875 -9.257812 10.15625 -9.140625 9.78125 -9.140625 C 9.40625 -9.140625 9.078125 -9.25 8.796875 -9.46875 C 8.523438 -9.6875 8.390625 -10 8.390625 -10.40625 C 8.390625 -10.789062 8.492188 -11.097656 8.703125 -11.328125 C 8.910156 -11.566406 9.160156 -11.71875 9.453125 -11.78125 C 9.285156 -12.082031 8.988281 -12.332031 8.5625 -12.53125 C 8.132812 -12.738281 7.675781 -12.84375 7.1875 -12.84375 C 6.769531 -12.84375 6.347656 -12.738281 5.921875 -12.53125 C 5.503906 -12.332031 5.117188 -12.003906 4.765625 -11.546875 C 4.421875 -11.085938 4.140625 -10.457031 3.921875 -9.65625 C 3.703125 -8.863281 3.59375 -7.875 3.59375 -6.6875 C 3.59375 -5.207031 3.757812 -4.03125 4.09375 -3.15625 C 4.425781 -2.289062 4.863281 -1.671875 5.40625 -1.296875 C 5.957031 -0.921875 6.554688 -0.734375 7.203125 -0.734375 C 7.640625 -0.734375 8.082031 -0.816406 8.53125 -0.984375 C 8.988281 -1.148438 9.414062 -1.421875 9.8125 -1.796875 C 10.21875 -2.171875 10.566406 -2.675781 10.859375 -3.3125 L 11.328125 -3.140625 C 11.160156 -2.609375 10.882812 -2.066406 10.5 -1.515625 C 10.113281 -0.972656 9.609375 -0.523438 8.984375 -0.171875 C 8.367188 0.179688 7.609375 0.359375 6.703125 0.359375 C 5.671875 0.359375 4.734375 0.09375 3.890625 -0.4375 C 3.054688 -0.976562 2.390625 -1.75 1.890625 -2.75 C 1.398438 -3.75 1.15625 -4.9375 1.15625 -6.3125 C 1.15625 -7.675781 1.398438 -8.878906 1.890625 -9.921875 C 2.390625 -10.972656 3.082031 -11.796875 3.96875 -12.390625 C 4.851562 -12.992188 5.867188 -13.296875 7.015625 -13.296875 Z M 7.015625 -13.296875 "/></g></g></g><g fill="#000000" fill-opacity="1"><g transform="translate(91.556736, 49.693906)"><g><path d="M 8.546875 -13.296875 C 8.992188 -13.296875 9.390625 -13.203125 9.734375 -13.015625 C 10.078125 -12.828125 10.34375 -12.585938 10.53125 -12.296875 C 10.726562 -12.003906 10.828125 -11.675781 10.828125 -11.3125 C 10.828125 -10.882812 10.695312 -10.507812 10.4375 -10.1875 C 10.175781 -9.875 9.828125 -9.71875 9.390625 -9.71875 C 9.046875 -9.71875 8.738281 -9.832031 8.46875 -10.0625 C 8.195312 -10.289062 8.0625 -10.613281 8.0625 -11.03125 C 8.0625 -11.34375 8.148438 -11.613281 8.328125 -11.84375 C 8.503906 -12.070312 8.703125 -12.253906 8.921875 -12.390625 C 8.804688 -12.554688 8.628906 -12.640625 8.390625 -12.640625 C 7.867188 -12.640625 7.390625 -12.484375 6.953125 -12.171875 C 6.523438 -11.859375 6.160156 -11.457031 5.859375 -10.96875 C 5.554688 -10.488281 5.320312 -9.976562 5.15625 -9.4375 C 4.988281 -8.894531 4.90625 -8.390625 4.90625 -7.921875 L 4.90625 -2.59375 C 4.90625 -1.769531 5.140625 -1.21875 5.609375 -0.9375 C 6.085938 -0.664062 6.738281 -0.53125 7.5625 -0.53125 L 7.5625 0 C 7.175781 -0.0195312 6.628906 -0.0390625 5.921875 -0.0625 C 5.222656 -0.0820312 4.476562 -0.09375 3.6875 -0.09375 C 3.125 -0.09375 2.5625 -0.0820312 2 -0.0625 C 1.4375 -0.0390625 1.015625 -0.0195312 0.734375 0 L 0.734375 -0.53125 C 1.421875 -0.53125 1.910156 -0.65625 2.203125 -0.90625 C 2.492188 -1.15625 2.640625 -1.632812 2.640625 -2.34375 L 2.640625 -10.203125 C 2.640625 -10.953125 2.503906 -11.503906 2.234375 -11.859375 C 1.960938 -12.222656 1.460938 -12.40625 0.734375 -12.40625 L 0.734375 -12.9375 C 1.265625 -12.882812 1.78125 -12.859375 2.28125 -12.859375 C 2.769531 -12.859375 3.234375 -12.890625 3.671875 -12.953125 C 4.117188 -13.015625 4.53125 -13.101562 4.90625 -13.21875 L 4.90625 -10.078125 C 5.082031 -10.554688 5.34375 -11.039062 5.6875 -11.53125 C 6.03125 -12.03125 6.441406 -12.445312 6.921875 -12.78125 C 7.410156 -13.125 7.953125 -13.296875 8.546875 -13.296875 Z M 8.546875 -13.296875 "/></g></g></g><g fill="#000000" fill-opacity="1"><g transform="translate(102.738243, 49.693906)"><g><path d="M 4.296875 0.171875 C 3.609375 0.171875 3.015625 0.0390625 2.515625 -0.21875 C 2.015625 -0.476562 1.632812 -0.84375 1.375 -1.3125 C 1.113281 -1.78125 0.984375 -2.320312 0.984375 -2.9375 C 0.984375 -3.675781 1.15625 -4.28125 1.5 -4.75 C 1.84375 -5.21875 2.28125 -5.59375 2.8125 -5.875 C 3.351562 -6.164062 3.921875 -6.40625 4.515625 -6.59375 C 5.109375 -6.789062 5.671875 -6.972656 6.203125 -7.140625 C 6.742188 -7.316406 7.1875 -7.519531 7.53125 -7.75 C 7.875 -7.988281 8.046875 -8.300781 8.046875 -8.6875 L 8.046875 -10.25 C 8.046875 -10.957031 7.9375 -11.492188 7.71875 -11.859375 C 7.507812 -12.222656 7.226562 -12.46875 6.875 -12.59375 C 6.53125 -12.71875 6.140625 -12.78125 5.703125 -12.78125 C 5.285156 -12.78125 4.835938 -12.722656 4.359375 -12.609375 C 3.878906 -12.492188 3.5 -12.253906 3.21875 -11.890625 C 3.53125 -11.816406 3.800781 -11.644531 4.03125 -11.375 C 4.269531 -11.113281 4.390625 -10.769531 4.390625 -10.34375 C 4.390625 -9.925781 4.253906 -9.597656 3.984375 -9.359375 C 3.722656 -9.117188 3.382812 -9 2.96875 -9 C 2.476562 -9 2.117188 -9.148438 1.890625 -9.453125 C 1.671875 -9.765625 1.5625 -10.113281 1.5625 -10.5 C 1.5625 -10.9375 1.671875 -11.285156 1.890625 -11.546875 C 2.109375 -11.816406 2.382812 -12.070312 2.71875 -12.3125 C 3.101562 -12.582031 3.597656 -12.8125 4.203125 -13 C 4.816406 -13.195312 5.507812 -13.296875 6.28125 -13.296875 C 6.96875 -13.296875 7.550781 -13.210938 8.03125 -13.046875 C 8.519531 -12.890625 8.925781 -12.660156 9.25 -12.359375 C 9.6875 -11.960938 9.96875 -11.472656 10.09375 -10.890625 C 10.226562 -10.316406 10.296875 -9.625 10.296875 -8.8125 L 10.296875 -1.828125 C 10.296875 -1.410156 10.359375 -1.109375 10.484375 -0.921875 C 10.609375 -0.742188 10.804688 -0.65625 11.078125 -0.65625 C 11.265625 -0.65625 11.441406 -0.695312 11.609375 -0.78125 C 11.773438 -0.863281 11.972656 -1 12.203125 -1.1875 L 12.484375 -0.75 C 12.128906 -0.488281 11.789062 -0.269531 11.46875 -0.09375 C 11.15625 0.0820312 10.734375 0.171875 10.203125 0.171875 C 9.710938 0.171875 9.304688 0.0859375 8.984375 -0.078125 C 8.671875 -0.242188 8.4375 -0.488281 8.28125 -0.8125 C 8.125 -1.144531 8.046875 -1.5625 8.046875 -2.0625 C 7.585938 -1.300781 7.046875 -0.738281 6.421875 -0.375 C 5.796875 -0.0078125 5.085938 0.171875 4.296875 0.171875 Z M 5.203125 -0.828125 C 5.753906 -0.828125 6.269531 -0.984375 6.75 -1.296875 C 7.226562 -1.617188 7.660156 -2.097656 8.046875 -2.734375 L 8.046875 -7.65625 C 7.835938 -7.375 7.539062 -7.132812 7.15625 -6.9375 C 6.769531 -6.75 6.347656 -6.554688 5.890625 -6.359375 C 5.441406 -6.171875 5.015625 -5.945312 4.609375 -5.6875 C 4.203125 -5.425781 3.863281 -5.085938 3.59375 -4.671875 C 3.320312 -4.253906 3.1875 -3.710938 3.1875 -3.046875 C 3.1875 -2.367188 3.363281 -1.828125 3.71875 -1.421875 C 4.082031 -1.023438 4.578125 -0.828125 5.203125 -0.828125 Z M 5.203125 -0.828125 "/></g></g></g><g fill="#000000" fill-opacity="1"><g transform="translate(115.251482, 49.693906)"><g><path d="M 11.03125 -13.0625 L 3.765625 -0.375 L 6.53125 -0.375 C 7.195312 -0.375 7.773438 -0.507812 8.265625 -0.78125 C 8.765625 -1.050781 9.164062 -1.484375 9.46875 -2.078125 C 9.769531 -2.671875 9.957031 -3.453125 10.03125 -4.421875 L 10.609375 -4.421875 C 10.609375 -3.347656 10.613281 -2.441406 10.625 -1.703125 C 10.644531 -0.972656 10.671875 -0.375 10.703125 0.09375 C 9.960938 0.0625 9.191406 0.0351562 8.390625 0.015625 C 7.597656 0.00390625 6.8125 0 6.03125 0 C 5.195312 0 4.34375 0.0078125 3.46875 0.03125 C 2.59375 0.0625 1.753906 0.09375 0.953125 0.125 L 8.21875 -12.5625 L 5.453125 -12.5625 C 4.710938 -12.5625 4.09375 -12.425781 3.59375 -12.15625 C 3.101562 -11.894531 2.726562 -11.460938 2.46875 -10.859375 C 2.207031 -10.265625 2.035156 -9.484375 1.953125 -8.515625 L 1.375 -8.515625 C 1.375 -9.609375 1.363281 -10.519531 1.34375 -11.25 C 1.332031 -11.976562 1.3125 -12.578125 1.28125 -13.046875 C 2.019531 -13.003906 2.785156 -12.972656 3.578125 -12.953125 C 4.378906 -12.941406 5.171875 -12.9375 5.953125 -12.9375 C 6.785156 -12.9375 7.640625 -12.945312 8.515625 -12.96875 C 9.390625 -13 10.226562 -13.03125 11.03125 -13.0625 Z M 11.03125 -13.0625 "/></g></g></g><g fill="#000000" fill-opacity="1"><g transform="translate(127.21193, 49.693906)"><g><path d="M 12.40625 -12.9375 L 12.40625 -12.4375 C 12.09375 -12.40625 11.800781 -12.265625 11.53125 -12.015625 C 11.257812 -11.765625 11.007812 -11.316406 10.78125 -10.671875 L 6.65625 0.125 L 6.234375 0.125 L 1.609375 -11 C 1.285156 -11.65625 0.96875 -12.050781 0.65625 -12.1875 C 0.351562 -12.332031 0.101562 -12.40625 -0.09375 -12.40625 L -0.09375 -12.9375 C 0.269531 -12.882812 0.648438 -12.84375 1.046875 -12.8125 C 1.453125 -12.789062 1.890625 -12.78125 2.359375 -12.78125 C 2.878906 -12.78125 3.425781 -12.796875 4 -12.828125 C 4.582031 -12.867188 5.125 -12.90625 5.625 -12.9375 L 5.625 -12.40625 C 5.207031 -12.40625 4.832031 -12.375 4.5 -12.3125 C 4.175781 -12.257812 3.972656 -12.085938 3.890625 -11.796875 C 3.804688 -11.503906 3.910156 -11.003906 4.203125 -10.296875 L 7.28125 -2.640625 L 7.140625 -2.59375 L 10 -10.078125 C 10.21875 -10.628906 10.304688 -11.066406 10.265625 -11.390625 C 10.222656 -11.722656 10.050781 -11.972656 9.75 -12.140625 C 9.445312 -12.304688 8.992188 -12.40625 8.390625 -12.4375 L 8.390625 -12.9375 C 8.691406 -12.925781 8.953125 -12.914062 9.171875 -12.90625 C 9.390625 -12.894531 9.601562 -12.882812 9.8125 -12.875 C 10.019531 -12.863281 10.25 -12.859375 10.5 -12.859375 C 10.882812 -12.859375 11.234375 -12.867188 11.546875 -12.890625 C 11.859375 -12.910156 12.144531 -12.925781 12.40625 -12.9375 Z M 6.65625 0.125 L 5.796875 2.3125 C 5.628906 2.726562 5.457031 3.078125 5.28125 3.359375 C 5.113281 3.648438 4.925781 3.882812 4.71875 4.0625 C 4.457031 4.320312 4.140625 4.492188 3.765625 4.578125 C 3.398438 4.671875 3.066406 4.71875 2.765625 4.71875 C 2.441406 4.71875 2.148438 4.660156 1.890625 4.546875 C 1.628906 4.429688 1.425781 4.257812 1.28125 4.03125 C 1.132812 3.800781 1.0625 3.53125 1.0625 3.21875 C 1.0625 2.8125 1.175781 2.488281 1.40625 2.25 C 1.644531 2.007812 1.972656 1.890625 2.390625 1.890625 C 2.742188 1.890625 3.046875 1.988281 3.296875 2.1875 C 3.546875 2.382812 3.671875 2.675781 3.671875 3.0625 C 3.671875 3.351562 3.601562 3.585938 3.46875 3.765625 C 3.332031 3.953125 3.171875 4.097656 2.984375 4.203125 C 3.023438 4.210938 3.054688 4.21875 3.078125 4.21875 C 3.097656 4.21875 3.117188 4.21875 3.140625 4.21875 C 3.585938 4.21875 3.988281 4.0625 4.34375 3.75 C 4.695312 3.445312 5.007812 2.953125 5.28125 2.265625 L 6.1875 -0.078125 Z M 6.65625 0.125 "/></g></g></g><g fill="#158570" fill-opacity="1"><g transform="translate(139.876234, 49.693906)"><g><path d="M 6.125 -13.296875 C 7.28125 -13.296875 8.195312 -13.019531 8.875 -12.46875 C 9.5625 -11.925781 9.90625 -11.144531 9.90625 -10.125 C 9.90625 -9.457031 9.75 -8.828125 9.4375 -8.234375 C 9.125 -7.640625 8.71875 -7.066406 8.21875 -6.515625 C 7.71875 -5.972656 7.179688 -5.445312 6.609375 -4.9375 C 6.035156 -4.425781 5.476562 -3.921875 4.9375 -3.421875 C 4.40625 -2.929688 3.957031 -2.4375 3.59375 -1.9375 L 8.6875 -1.9375 C 9.375 -1.9375 9.8125 -2.03125 10 -2.21875 C 10.1875 -2.414062 10.3125 -2.75 10.375 -3.21875 L 10.796875 -3.21875 C 10.796875 -2.332031 10.804688 -1.648438 10.828125 -1.171875 C 10.847656 -0.691406 10.875 -0.257812 10.90625 0.125 C 10.75 0.09375 10.46875 0.0664062 10.0625 0.046875 C 9.664062 0.0351562 9.207031 0.0234375 8.6875 0.015625 C 8.175781 0.00390625 7.664062 0 7.15625 0 L 1.28125 0 L 1.28125 -0.421875 C 1.78125 -0.972656 2.378906 -1.5625 3.078125 -2.1875 C 3.785156 -2.820312 4.46875 -3.507812 5.125 -4.25 C 5.789062 -5 6.347656 -5.8125 6.796875 -6.6875 C 7.242188 -7.570312 7.46875 -8.535156 7.46875 -9.578125 C 7.46875 -10.523438 7.242188 -11.210938 6.796875 -11.640625 C 6.347656 -12.066406 5.734375 -12.28125 4.953125 -12.28125 C 4.273438 -12.28125 3.648438 -12.082031 3.078125 -11.6875 C 2.515625 -11.300781 2.015625 -10.710938 1.578125 -9.921875 L 1.1875 -10.15625 C 1.4375 -10.6875 1.773438 -11.191406 2.203125 -11.671875 C 2.628906 -12.148438 3.164062 -12.539062 3.8125 -12.84375 C 4.457031 -13.144531 5.226562 -13.296875 6.125 -13.296875 Z M 6.125 -13.296875 "/></g></g></g><g fill="#000000" fill-opacity="1"><g transform="translate(151.915944, 49.693906)"><g><path d="M 5.359375 4.71875 C 4.460938 4.71875 3.617188 4.625 2.828125 4.4375 C 2.046875 4.257812 1.414062 3.972656 0.9375 3.578125 C 0.457031 3.179688 0.21875 2.679688 0.21875 2.078125 C 0.21875 1.492188 0.453125 0.992188 0.921875 0.578125 C 1.398438 0.160156 2.039062 -0.15625 2.84375 -0.375 L 2.984375 0.03125 C 2.617188 0.144531 2.328125 0.375 2.109375 0.71875 C 1.890625 1.070312 1.78125 1.46875 1.78125 1.90625 C 1.78125 2.675781 2.132812 3.265625 2.84375 3.671875 C 3.5625 4.085938 4.488281 4.296875 5.625 4.296875 C 6.382812 4.296875 7.125 4.195312 7.84375 4 C 8.5625 3.8125 9.15625 3.488281 9.625 3.03125 C 10.09375 2.582031 10.328125 1.988281 10.328125 1.25 C 10.328125 0.695312 10.128906 0.242188 9.734375 -0.109375 C 9.335938 -0.472656 8.5625 -0.65625 7.40625 -0.65625 L 5.546875 -0.65625 C 5.015625 -0.65625 4.492188 -0.695312 3.984375 -0.78125 C 3.484375 -0.863281 3.070312 -1.035156 2.75 -1.296875 C 2.4375 -1.566406 2.28125 -1.976562 2.28125 -2.53125 C 2.28125 -3.101562 2.515625 -3.648438 2.984375 -4.171875 C 3.453125 -4.703125 4.316406 -5.242188 5.578125 -5.796875 L 5.875 -5.578125 C 5.3125 -5.273438 4.816406 -4.96875 4.390625 -4.65625 C 3.972656 -4.351562 3.765625 -3.988281 3.765625 -3.5625 C 3.765625 -3.03125 4.164062 -2.765625 4.96875 -2.765625 L 8.109375 -2.765625 C 8.816406 -2.765625 9.46875 -2.660156 10.0625 -2.453125 C 10.65625 -2.253906 11.132812 -1.9375 11.5 -1.5 C 11.875 -1.070312 12.0625 -0.503906 12.0625 0.203125 C 12.0625 0.984375 11.804688 1.71875 11.296875 2.40625 C 10.796875 3.09375 10.046875 3.648438 9.046875 4.078125 C 8.054688 4.503906 6.828125 4.71875 5.359375 4.71875 Z M 5.484375 -5.359375 C 4.660156 -5.359375 3.910156 -5.492188 3.234375 -5.765625 C 2.566406 -6.046875 2.039062 -6.476562 1.65625 -7.0625 C 1.269531 -7.644531 1.078125 -8.398438 1.078125 -9.328125 C 1.078125 -10.242188 1.269531 -10.992188 1.65625 -11.578125 C 2.039062 -12.171875 2.566406 -12.601562 3.234375 -12.875 C 3.910156 -13.15625 4.660156 -13.296875 5.484375 -13.296875 C 6.316406 -13.296875 7.0625 -13.15625 7.71875 -12.875 C 8.382812 -12.601562 8.910156 -12.171875 9.296875 -11.578125 C 9.679688 -10.992188 9.875 -10.242188 9.875 -9.328125 C 9.875 -8.398438 9.679688 -7.644531 9.296875 -7.0625 C 8.910156 -6.476562 8.382812 -6.046875 7.71875 -5.765625 C 7.0625 -5.492188 6.316406 -5.359375 5.484375 -5.359375 Z M 5.484375 -5.796875 C 6.117188 -5.796875 6.613281 -6.046875 6.96875 -6.546875 C 7.332031 -7.054688 7.515625 -7.984375 7.515625 -9.328125 C 7.515625 -10.660156 7.332031 -11.578125 6.96875 -12.078125 C 6.613281 -12.585938 6.117188 -12.84375 5.484375 -12.84375 C 4.859375 -12.84375 4.359375 -12.585938 3.984375 -12.078125 C 3.617188 -11.578125 3.4375 -10.660156 3.4375 -9.328125 C 3.4375 -7.984375 3.617188 -7.054688 3.984375 -6.546875 C 4.359375 -6.046875 4.859375 -5.796875 5.484375 -5.796875 Z M 9.09375 -11.203125 L 8.640625 -11.375 C 8.878906 -11.945312 9.28125 -12.453125 9.84375 -12.890625 C 10.414062 -13.328125 11.015625 -13.546875 11.640625 -13.546875 C 12.066406 -13.546875 12.414062 -13.421875 12.6875 -13.171875 C 12.957031 -12.929688 13.09375 -12.566406 13.09375 -12.078125 C 13.09375 -11.566406 12.953125 -11.203125 12.671875 -10.984375 C 12.398438 -10.773438 12.117188 -10.671875 11.828125 -10.671875 C 11.578125 -10.671875 11.34375 -10.757812 11.125 -10.9375 C 10.90625 -11.113281 10.78125 -11.394531 10.75 -11.78125 C 10.71875 -12.164062 10.835938 -12.660156 11.109375 -13.265625 L 11.4375 -13.1875 C 10.726562 -12.914062 10.222656 -12.632812 9.921875 -12.34375 C 9.617188 -12.050781 9.34375 -11.671875 9.09375 -11.203125 Z M 9.09375 -11.203125 "/></g></g></g><g fill="#000000" fill-opacity="1"><g transform="translate(165.182992, 49.693906)"><g><path d="M 6.890625 -13.296875 C 7.960938 -13.296875 8.925781 -13.0625 9.78125 -12.59375 C 10.632812 -12.125 11.316406 -11.382812 11.828125 -10.375 C 12.335938 -9.375 12.59375 -8.066406 12.59375 -6.453125 C 12.59375 -4.847656 12.335938 -3.546875 11.828125 -2.546875 C 11.316406 -1.554688 10.632812 -0.820312 9.78125 -0.34375 C 8.925781 0.125 7.960938 0.359375 6.890625 0.359375 C 5.828125 0.359375 4.863281 0.125 4 -0.34375 C 3.144531 -0.820312 2.460938 -1.554688 1.953125 -2.546875 C 1.441406 -3.546875 1.1875 -4.847656 1.1875 -6.453125 C 1.1875 -8.066406 1.441406 -9.375 1.953125 -10.375 C 2.460938 -11.382812 3.144531 -12.125 4 -12.59375 C 4.863281 -13.0625 5.828125 -13.296875 6.890625 -13.296875 Z M 6.890625 -12.78125 C 5.929688 -12.78125 5.144531 -12.285156 4.53125 -11.296875 C 3.925781 -10.316406 3.625 -8.703125 3.625 -6.453125 C 3.625 -4.210938 3.925781 -2.601562 4.53125 -1.625 C 5.144531 -0.644531 5.929688 -0.15625 6.890625 -0.15625 C 7.835938 -0.15625 8.617188 -0.644531 9.234375 -1.625 C 9.847656 -2.601562 10.15625 -4.210938 10.15625 -6.453125 C 10.15625 -8.703125 9.847656 -10.316406 9.234375 -11.296875 C 8.617188 -12.285156 7.835938 -12.78125 6.890625 -12.78125 Z M 6.890625 -12.78125 "/></g></g></g><g fill="#000000" fill-opacity="1"><g transform="translate(178.952579, 49.693906)"><g><path d="M 16.453125 -17.78125 L 16.453125 -17.28125 C 15.890625 -17.269531 15.457031 -17.1875 15.15625 -17.03125 C 14.863281 -16.882812 14.664062 -16.640625 14.5625 -16.296875 C 14.46875 -15.960938 14.421875 -15.488281 14.421875 -14.875 L 14.421875 -7.3125 C 14.421875 -6.132812 14.34375 -5.109375 14.1875 -4.234375 C 14.039062 -3.367188 13.773438 -2.617188 13.390625 -1.984375 C 12.972656 -1.273438 12.359375 -0.707031 11.546875 -0.28125 C 10.742188 0.144531 9.828125 0.359375 8.796875 0.359375 C 7.992188 0.359375 7.226562 0.257812 6.5 0.0625 C 5.769531 -0.125 5.128906 -0.476562 4.578125 -1 C 4.085938 -1.46875 3.703125 -1.960938 3.421875 -2.484375 C 3.148438 -3.003906 2.960938 -3.640625 2.859375 -4.390625 C 2.765625 -5.148438 2.71875 -6.097656 2.71875 -7.234375 L 2.71875 -15.125 C 2.71875 -15.75 2.664062 -16.207031 2.5625 -16.5 C 2.457031 -16.789062 2.257812 -16.988281 1.96875 -17.09375 C 1.675781 -17.207031 1.242188 -17.269531 0.671875 -17.28125 L 0.671875 -17.78125 C 1.023438 -17.769531 1.488281 -17.753906 2.0625 -17.734375 C 2.632812 -17.722656 3.242188 -17.71875 3.890625 -17.71875 C 4.484375 -17.71875 5.066406 -17.722656 5.640625 -17.734375 C 6.210938 -17.753906 6.691406 -17.769531 7.078125 -17.78125 L 7.078125 -17.28125 C 6.515625 -17.269531 6.085938 -17.207031 5.796875 -17.09375 C 5.503906 -16.988281 5.304688 -16.789062 5.203125 -16.5 C 5.097656 -16.207031 5.046875 -15.75 5.046875 -15.125 L 5.046875 -6.8125 C 5.046875 -5.957031 5.085938 -5.144531 5.171875 -4.375 C 5.253906 -3.613281 5.425781 -2.941406 5.6875 -2.359375 C 5.945312 -1.785156 6.34375 -1.335938 6.875 -1.015625 C 7.414062 -0.691406 8.128906 -0.53125 9.015625 -0.53125 C 10.285156 -0.53125 11.269531 -0.8125 11.96875 -1.375 C 12.664062 -1.9375 13.148438 -2.707031 13.421875 -3.6875 C 13.703125 -4.675781 13.84375 -5.789062 13.84375 -7.03125 L 13.84375 -14.875 C 13.84375 -15.488281 13.769531 -15.960938 13.625 -16.296875 C 13.488281 -16.640625 13.25 -16.882812 12.90625 -17.03125 C 12.570312 -17.1875 12.125 -17.269531 11.5625 -17.28125 L 11.5625 -17.78125 C 11.863281 -17.769531 12.257812 -17.753906 12.75 -17.734375 C 13.238281 -17.722656 13.695312 -17.71875 14.125 -17.71875 C 14.5625 -17.71875 14.992188 -17.722656 15.421875 -17.734375 C 15.847656 -17.753906 16.191406 -17.769531 16.453125 -17.78125 Z M 16.453125 -17.78125 "/></g></g></g><g fill="#000000" fill-opacity="1"><g transform="translate(196.089188, 49.693906)"><g><path d="M 6.4375 -18.0625 C 7.269531 -18.0625 7.90625 -17.960938 8.34375 -17.765625 C 8.78125 -17.578125 9.164062 -17.367188 9.5 -17.140625 C 9.695312 -17.015625 9.859375 -16.921875 9.984375 -16.859375 C 10.109375 -16.804688 10.226562 -16.78125 10.34375 -16.78125 C 10.519531 -16.78125 10.644531 -16.875 10.71875 -17.0625 C 10.789062 -17.25 10.851562 -17.523438 10.90625 -17.890625 L 11.484375 -17.890625 C 11.460938 -17.609375 11.4375 -17.269531 11.40625 -16.875 C 11.382812 -16.476562 11.367188 -15.957031 11.359375 -15.3125 C 11.359375 -14.664062 11.359375 -13.816406 11.359375 -12.765625 L 10.78125 -12.765625 C 10.726562 -13.566406 10.550781 -14.335938 10.25 -15.078125 C 9.945312 -15.816406 9.503906 -16.421875 8.921875 -16.890625 C 8.347656 -17.359375 7.59375 -17.59375 6.65625 -17.59375 C 5.769531 -17.59375 5.035156 -17.320312 4.453125 -16.78125 C 3.878906 -16.25 3.59375 -15.546875 3.59375 -14.671875 C 3.59375 -13.921875 3.785156 -13.289062 4.171875 -12.78125 C 4.554688 -12.269531 5.070312 -11.804688 5.71875 -11.390625 C 6.363281 -10.984375 7.0625 -10.546875 7.8125 -10.078125 C 8.6875 -9.535156 9.460938 -9 10.140625 -8.46875 C 10.816406 -7.945312 11.351562 -7.367188 11.75 -6.734375 C 12.144531 -6.097656 12.34375 -5.328125 12.34375 -4.421875 C 12.34375 -3.347656 12.097656 -2.457031 11.609375 -1.75 C 11.117188 -1.050781 10.472656 -0.523438 9.671875 -0.171875 C 8.867188 0.179688 7.984375 0.359375 7.015625 0.359375 C 6.117188 0.359375 5.410156 0.253906 4.890625 0.046875 C 4.378906 -0.148438 3.9375 -0.359375 3.5625 -0.578125 C 3.195312 -0.804688 2.914062 -0.921875 2.71875 -0.921875 C 2.550781 -0.921875 2.425781 -0.828125 2.34375 -0.640625 C 2.269531 -0.460938 2.207031 -0.191406 2.15625 0.171875 L 1.578125 0.171875 C 1.617188 -0.179688 1.640625 -0.59375 1.640625 -1.0625 C 1.648438 -1.539062 1.660156 -2.164062 1.671875 -2.9375 C 1.679688 -3.707031 1.6875 -4.679688 1.6875 -5.859375 L 2.265625 -5.859375 C 2.328125 -4.847656 2.515625 -3.90625 2.828125 -3.03125 C 3.140625 -2.164062 3.613281 -1.46875 4.25 -0.9375 C 4.894531 -0.414062 5.753906 -0.15625 6.828125 -0.15625 C 7.378906 -0.15625 7.898438 -0.265625 8.390625 -0.484375 C 8.890625 -0.710938 9.296875 -1.070312 9.609375 -1.5625 C 9.929688 -2.0625 10.09375 -2.707031 10.09375 -3.5 C 10.09375 -4.175781 9.929688 -4.769531 9.609375 -5.28125 C 9.285156 -5.800781 8.828125 -6.28125 8.234375 -6.71875 C 7.648438 -7.164062 6.96875 -7.625 6.1875 -8.09375 C 5.394531 -8.570312 4.65625 -9.0625 3.96875 -9.5625 C 3.28125 -10.070312 2.726562 -10.65625 2.3125 -11.3125 C 1.90625 -11.976562 1.703125 -12.78125 1.703125 -13.71875 C 1.703125 -14.707031 1.925781 -15.523438 2.375 -16.171875 C 2.820312 -16.816406 3.40625 -17.289062 4.125 -17.59375 C 4.84375 -17.90625 5.613281 -18.0625 6.4375 -18.0625 Z M 6.4375 -18.0625 "/></g></g></g><g clip-path="url(#b479d75ba2)"><g fill="#000000" fill-opacity="1"><g transform="translate(209.657764, 49.693906)"><g><path d="M 8.109375 -17.921875 L 14.25 -2.109375 C 14.5 -1.472656 14.78125 -1.050781 15.09375 -0.84375 C 15.414062 -0.632812 15.710938 -0.519531 15.984375 -0.5 L 15.984375 0 C 15.648438 -0.03125 15.238281 -0.0507812 14.75 -0.0625 C 14.257812 -0.0703125 13.773438 -0.078125 13.296875 -0.078125 C 12.640625 -0.078125 12.023438 -0.0703125 11.453125 -0.0625 C 10.890625 -0.0507812 10.429688 -0.03125 10.078125 0 L 10.078125 -0.5 C 10.929688 -0.53125 11.472656 -0.675781 11.703125 -0.9375 C 11.941406 -1.195312 11.894531 -1.753906 11.5625 -2.609375 L 6.890625 -15.09375 L 7.28125 -15.421875 L 2.921875 -4.0625 C 2.648438 -3.394531 2.488281 -2.832031 2.4375 -2.375 C 2.382812 -1.914062 2.425781 -1.550781 2.5625 -1.28125 C 2.707031 -1.007812 2.953125 -0.816406 3.296875 -0.703125 C 3.640625 -0.585938 4.070312 -0.519531 4.59375 -0.5 L 4.59375 0 C 4.125 -0.03125 3.632812 -0.0507812 3.125 -0.0625 C 2.613281 -0.0703125 2.140625 -0.078125 1.703125 -0.078125 C 1.285156 -0.078125 0.929688 -0.0703125 0.640625 -0.0625 C 0.347656 -0.0507812 0.078125 -0.03125 -0.171875 0 L -0.171875 -0.5 C 0.160156 -0.582031 0.5 -0.78125 0.84375 -1.09375 C 1.195312 -1.40625 1.519531 -1.9375 1.8125 -2.6875 L 7.71875 -17.921875 C 7.78125 -17.921875 7.84375 -17.921875 7.90625 -17.921875 C 7.976562 -17.921875 8.046875 -17.921875 8.109375 -17.921875 Z M 11.1875 -7.234375 L 11.1875 -6.734375 L 3.6875 -6.734375 L 3.9375 -7.234375 Z M 11.1875 -7.234375 "/></g></g></g></g></svg>